<svg width="174" height="47" viewBox="0 0 174 47" fill="none" xmlns="http://www.w3.org/2000/svg">
<path d="M148.178 14.9876C146.552 14.9876 144.545 15.2916 142.706 15.9072C142.318 16.0364 141.611 16.3328 141.611 16.3328L142.508 19.5781L142.668 19.5249C142.668 19.5249 143.276 19.3349 143.633 19.2285C143.656 19.2285 145.784 18.4913 147.654 18.4913C148.923 18.4913 149.865 18.7497 150.451 19.2589C150.99 19.7225 151.271 20.5206 151.302 21.6454H148.049C145.662 21.6454 143.785 22.147 142.47 23.1351C141.216 24.0775 140.585 25.3847 140.585 27.034C140.585 28.5464 141.133 29.7853 142.204 30.7277C143.17 31.5713 144.408 32.0046 145.989 32.0578C146.065 32.0578 146.149 32.0578 146.232 32.0578C147.243 32.0578 148.581 31.9894 149.896 31.4421C150.291 31.2749 150.8 31.0545 151.309 30.7277V32.0502H154.973V21.4402C154.973 19.6845 154.418 18.1949 153.331 17.0245C152.107 15.6716 150.375 14.98 148.178 14.98V14.9876ZM151.309 25.1035V26.5324C150.884 27.0492 150.192 27.5812 149.447 27.9612C148.627 28.3792 147.912 28.592 147.137 28.6376C145.153 28.7669 144.006 28.1132 144.006 26.882C144.006 26.236 144.652 25.6963 145.298 25.4455C146.065 25.1415 147.251 25.1035 148.414 25.1035H151.317H151.309Z" fill="black"/>
<path d="M130.858 14.9644C129.33 14.9644 127.962 15.276 126.792 15.884V14.9644H122.87V36.9823H126.792V31.1377C127.962 31.7457 129.33 32.0573 130.858 32.0573C133.335 32.0573 135.357 31.2593 136.87 29.6861C138.374 28.0976 139.134 26.0227 139.134 23.507C139.134 20.9914 138.374 18.9241 136.87 17.3356C135.365 15.7624 133.343 14.9644 130.858 14.9644V14.9644ZM127.818 27.3984C127.4 27.0184 127.05 26.4939 126.776 25.8555C126.503 25.2171 126.366 24.4267 126.366 23.4994C126.366 22.5722 126.503 21.7742 126.776 21.1358C127.544 19.3649 128.882 18.4985 130.858 18.4985C132.051 18.4985 133.069 18.8709 133.883 19.6081C134.863 20.5201 135.357 21.8198 135.357 23.4842C135.357 25.1487 134.863 26.5243 133.89 27.406C133.457 27.786 132.971 28.0672 132.439 28.2496C131.352 28.622 130.333 28.622 129.246 28.2496C128.722 28.0748 128.243 27.786 127.818 27.3984Z" fill="black"/>
<path d="M169.253 10.0093V15.8767C168.083 15.2687 166.715 14.957 165.187 14.957C162.71 14.957 160.688 15.7551 159.176 17.3283C157.671 18.9168 156.911 20.9917 156.911 23.5073C156.911 26.023 157.671 28.0903 159.176 29.6787C160.68 31.252 162.702 32.05 165.187 32.05C166.715 32.05 168.083 31.7384 169.253 31.1304V32.05H173.175V10.0093H169.253ZM169.679 23.5225C169.679 24.4574 169.542 25.2478 169.269 25.8862C168.501 27.6571 167.163 28.5235 165.187 28.5235C163.994 28.5235 162.976 28.1511 162.17 27.4139C161.19 26.5018 160.696 25.2022 160.696 23.5377C160.696 21.8733 161.19 20.4976 162.162 19.616C162.596 19.236 163.082 18.9548 163.614 18.7724C164.154 18.59 164.678 18.4988 165.21 18.4988C165.742 18.4988 166.267 18.59 166.806 18.7724C167.331 18.9472 167.809 19.236 168.235 19.6236C168.653 20.0036 169.003 20.528 169.276 21.1665C169.55 21.8049 169.687 22.5953 169.687 23.5225H169.679Z" fill="black"/>
<path d="M121.045 17.9743L118.628 14.8962L110.078 21.6149V10.0093H106.164V32.0576H110.078V26.6006L112.161 24.9666L118.264 32.1184L121.243 29.5799L115.239 22.5421L121.045 17.9743Z" fill="black"/>
<path d="M77.07 14.9644C74.4707 14.9644 72.3046 15.7852 70.7998 17.3432C69.2645 18.9089 68.4817 20.9914 68.4817 23.5146C68.4817 26.0379 69.2569 28.1128 70.7922 29.6785C72.2894 31.2289 74.4631 32.0497 77.0624 32.0497C79.6617 32.0497 81.8353 31.2289 83.3326 29.6785C84.8678 28.1128 85.6507 26.0379 85.6507 23.507C85.6507 20.9762 84.8678 18.9089 83.3326 17.3432C81.8277 15.7852 79.6617 14.9644 77.0624 14.9644H77.07ZM80.2013 27.3908C79.7529 27.7708 79.2513 28.052 78.704 28.2344C78.1568 28.4168 77.6096 28.508 77.07 28.508C76.5304 28.508 75.9831 28.4168 75.4359 28.2344C74.8887 28.052 74.3795 27.7708 73.9387 27.3984C72.9354 26.5167 72.4262 25.2019 72.4262 23.4766C72.4262 21.7514 72.9202 20.5277 73.9463 19.6081C74.7823 18.8709 75.8311 18.4985 77.07 18.4985C78.3088 18.4985 79.3577 18.8709 80.1937 19.6081C81.2197 20.5277 81.7137 21.7894 81.7137 23.4766C81.7137 25.1639 81.2045 26.5167 80.2013 27.3984V27.3908Z" fill="black"/>
<path d="M95.5768 14.9644C92.9775 14.9644 90.8114 15.7852 89.3066 17.3432C87.7713 18.9089 86.9885 20.9914 86.9885 23.5146C86.9885 26.0379 87.7637 28.1128 89.299 29.6785C90.7963 31.2289 92.9699 32.0497 95.5692 32.0497C98.1685 32.0497 100.342 31.2289 101.839 29.6785C103.375 28.1128 104.158 26.0379 104.158 23.507C104.158 20.9762 103.375 18.9089 101.839 17.3432C100.335 15.7852 98.1685 14.9644 95.5692 14.9644H95.5768ZM98.7081 27.3908C98.2597 27.7708 97.7581 28.052 97.2109 28.2344C96.6561 28.4168 96.124 28.508 95.5768 28.508C95.0372 28.508 94.49 28.4168 93.9428 28.2344C93.3955 28.052 92.8863 27.7708 92.4455 27.3984C91.4423 26.5167 90.9331 25.2019 90.9331 23.4766C90.9331 21.7514 91.4271 20.5277 92.4531 19.6081C93.2891 18.8709 94.338 18.4985 95.5768 18.4985C96.8157 18.4985 97.8645 18.8709 98.7005 19.6081C99.719 20.5277 100.221 21.7894 100.221 23.4766C100.221 25.1639 99.7114 26.5167 98.7081 27.3984V27.3908Z" fill="black"/>
<path d="M55.6759 23.4997C55.6759 24.2066 55.8279 25.3086 56.2611 26.099C56.6107 26.7374 57.1123 27.2847 57.7583 27.7331C58.4803 28.2271 59.4 28.4931 60.4184 28.4931C60.8896 28.4931 61.3684 28.4323 61.8321 28.3259C63.0785 28.0219 64.1653 27.3455 65.161 26.251L65.275 26.1218L67.8211 28.6147C67.8211 28.6147 67.1066 29.4355 66.2934 30.0359C64.667 31.2368 62.6833 32.0424 60.2968 32.0424C57.3935 32.0424 54.7866 30.7656 53.3426 28.7439C52.2557 27.2239 51.7617 25.3542 51.7617 23.4997C51.7617 21.6453 52.2557 19.7756 53.3426 18.2555C54.7866 16.2415 57.3935 14.957 60.2968 14.957C62.6833 14.957 64.667 15.7627 66.2934 16.9635C67.1142 17.5639 67.8211 18.3848 67.8211 18.3848L65.275 20.8776L65.161 20.7484C64.1653 19.654 63.0785 18.97 61.8321 18.6736C61.3684 18.5596 60.8896 18.5064 60.4184 18.5064C59.4 18.5064 58.4803 18.7724 57.7583 19.2664C57.1123 19.7148 56.6107 20.262 56.2611 20.9004C55.8279 21.6909 55.6759 22.7929 55.6759 23.4997Z" fill="black"/>
<path d="M47.8247 23.5C47.8247 10.5188 37.306 0 24.3247 0C11.3435 0 0.824707 10.5188 0.824707 23.5C0.824707 36.4812 11.3435 47 24.3247 47C37.306 47 47.8247 36.4812 47.8247 23.5V23.5Z" fill="#FF9933"/>
<path d="M35.2158 23.9636C35.079 23.9636 34.9422 23.956 34.8054 23.9408L34.965 22.6639C35.041 22.0179 34.6002 21.4251 33.977 21.3415C33.3538 21.2655 32.7837 21.7139 32.7001 22.3599C32.7001 22.3599 32.2289 26.198 31.7881 29.7702H16.922C16.2912 29.7702 15.782 30.3022 15.782 30.9558C15.782 31.6094 16.2912 32.1338 16.922 32.1338H31.4993C31.2941 33.7527 31.1345 35.0751 31.0737 35.5843H13.8667C14.0795 33.8287 14.9839 26.5172 15.326 23.7431C15.288 23.7431 15.2424 23.7431 15.2043 23.7431C12.5139 23.7431 10.3174 21.5695 10.3174 18.8942C10.3174 16.2189 12.5139 14.0452 15.2043 14.0452C16.7396 14.0452 18.1076 14.752 19.0045 15.8465C19.1261 16.0137 19.2933 16.0137 19.3237 15.7857C19.5669 13.3384 21.657 11.4155 24.1879 11.4155C26.7187 11.4155 28.6492 13.1864 29.014 15.5045C28.8392 15.8161 28.6796 16.1353 28.5504 16.4697L30.5873 17.5717C31.2409 15.6565 33.0726 14.2732 35.2158 14.2732C37.9063 14.2732 40.1028 16.4469 40.1028 19.1222C40.1028 21.7975 37.9139 23.9712 35.2158 23.9712V23.9636Z" fill="white"/>
<path d="M35.2156 11.9094C33.5436 11.9094 32.0083 12.487 30.7847 13.4598C29.6902 10.8758 27.1518 9.06689 24.1877 9.06689C21.6796 9.06689 19.4679 10.3741 18.1835 12.3502C17.2714 11.9322 16.2606 11.6966 15.2042 11.6966C11.252 11.6966 8.03711 14.9343 8.03711 18.9016C8.03711 22.0253 10.0208 24.6854 12.7873 25.6887L11.442 36.6178C11.404 36.9523 11.5028 37.2943 11.7156 37.5527C11.936 37.8035 12.2477 37.9479 12.5745 37.9479H32.0767C32.6543 37.9479 33.1408 37.5071 33.2092 36.9143L34.5164 26.2967C34.752 26.3195 34.98 26.3347 35.2156 26.3347C39.1678 26.3347 42.3827 23.097 42.3827 19.122C42.3827 15.1471 39.1678 11.917 35.2156 11.917V11.9094ZM35.2156 23.9634C35.0788 23.9634 34.942 23.9558 34.8052 23.9406L34.9648 22.6638C35.0408 22.0177 34.6 21.4249 33.9768 21.3413C33.3536 21.2653 32.7836 21.7137 32.7 22.3598C32.7 22.3598 32.2287 26.1979 31.7879 29.77H16.9218C16.291 29.77 15.7818 30.302 15.7818 30.9556C15.7818 31.6093 16.291 32.1337 16.9218 32.1337H31.4991C31.2939 33.7525 31.1343 35.075 31.0735 35.5842H13.8665C14.0793 33.8285 14.9837 26.5171 15.3258 23.743C15.2878 23.743 15.2422 23.743 15.2042 23.743C12.5137 23.743 10.3172 21.5693 10.3172 18.894C10.3172 16.2187 12.5137 14.0451 15.2042 14.0451C16.7394 14.0451 18.1075 14.7519 19.0043 15.8463C19.1259 16.0135 19.2931 16.0135 19.3235 15.7855C19.5667 13.3382 21.6568 11.4154 24.1877 11.4154C26.7185 11.4154 28.649 13.1862 29.0138 15.5043C28.839 15.8159 28.6794 16.1351 28.5502 16.4696L30.5871 17.5716C31.2407 15.6563 33.0724 14.2731 35.2156 14.2731C37.9061 14.2731 40.1026 16.4467 40.1026 19.122C40.1026 21.7973 37.9137 23.971 35.2156 23.971V23.9634Z" fill="black"/>
</svg>
