<svg width="568" height="94" viewBox="0 0 568 94" fill="none" xmlns="http://www.w3.org/2000/svg">
<rect x="0.5" y="7.5" width="149" height="35" rx="17.5" stroke="white"/>
<path d="M32.16 26.672C32.106 28.076 31.8 28.994 31.134 29.822C30.396 30.722 29.136 31.28 27.246 31.712C27.642 32.126 27.912 32.468 28.128 32.918C28.29 33.242 28.362 33.35 28.524 33.35C28.614 33.35 28.74 33.314 28.938 33.242C30.684 32.666 32.07 31.928 32.916 30.65C33.582 29.768 33.996 28.49 34.068 26.672H36.138V30.848C36.138 31.802 36.264 32.27 36.57 32.594C36.93 32.954 37.596 33.116 39.468 33.116C41.34 33.116 42.096 32.936 42.708 32.396C43.158 32.018 43.392 31.352 43.464 30.128C43.482 29.66 43.482 29.66 43.014 29.57C42.546 29.444 42.096 29.264 41.772 29.048C41.736 30.29 41.646 30.776 41.34 31.046C41.106 31.244 40.638 31.316 39.828 31.316C38.838 31.316 38.334 31.262 38.172 31.1C38.046 30.938 38.028 30.74 38.028 30.29V26.672H40.602C42.24 26.672 42.816 26.708 42.924 26.708C43.104 26.708 43.122 26.69 43.122 26.492V25.178C43.122 24.998 43.104 24.98 42.924 24.98C42.816 24.98 42.24 25.016 40.602 25.016H30.252C28.596 25.016 28.038 24.98 27.93 24.98C27.732 24.98 27.714 24.998 27.714 25.178V26.492C27.714 26.69 27.732 26.708 27.93 26.708C28.038 26.708 28.596 26.672 30.252 26.672H32.16ZM36.21 18.806V18.626C36.21 17.924 36.228 17.69 36.282 17.546C36.336 17.42 36.39 17.312 36.39 17.186C36.39 17.114 36.282 17.042 36.12 17.024C35.508 16.97 34.86 16.934 34.194 16.916C34.302 17.366 34.32 17.852 34.32 18.626V18.806H30.504C28.83 18.806 28.218 18.77 28.11 18.77C27.93 18.77 27.912 18.788 27.912 18.968C27.912 19.076 27.948 19.4 27.948 20.084V20.732C27.948 22.388 27.912 22.658 27.912 22.766C27.912 22.964 27.93 22.982 28.11 22.982H29.604C29.784 22.982 29.802 22.964 29.802 22.766V20.48H40.998V22.766C40.998 22.946 41.016 22.964 41.196 22.964H42.69C42.87 22.964 42.888 22.946 42.888 22.766C42.888 22.658 42.852 22.37 42.852 20.732V19.94C42.852 19.4 42.888 19.076 42.888 18.968C42.888 18.788 42.87 18.77 42.69 18.77C42.582 18.77 41.97 18.806 40.296 18.806H36.21ZM37.38 23.594C38.982 23.594 39.54 23.63 39.648 23.63C39.828 23.63 39.828 23.612 39.828 23.432V22.082C39.828 21.884 39.828 21.866 39.648 21.866C39.54 21.866 38.982 21.902 37.38 21.902H33.438C31.818 21.902 31.278 21.866 31.17 21.866C30.99 21.866 30.972 21.884 30.972 22.082V23.432C30.972 23.612 30.99 23.63 31.17 23.63C31.278 23.63 31.818 23.594 33.438 23.594H37.38ZM56.334 17.618C56.46 17.528 56.514 17.456 56.514 17.348C56.514 17.222 56.424 17.132 56.19 17.078C55.65 16.916 54.984 16.79 54.3 16.7C54.156 17.114 53.922 17.546 53.616 17.996C52.086 20.246 50.016 21.902 46.65 23.432C46.956 23.72 47.262 24.134 47.478 24.62C47.622 24.944 47.694 25.07 47.82 25.07C47.928 25.07 48.054 24.998 48.27 24.908C49.044 24.53 49.764 24.116 50.466 23.666V24.836C50.466 25.016 50.484 25.034 50.664 25.034C50.772 25.034 51.33 24.998 52.986 24.998H54.138V27.014H52.32C50.574 27.014 49.98 26.978 49.872 26.978C49.692 26.978 49.674 26.996 49.674 27.176V28.544C49.674 28.724 49.692 28.742 49.872 28.742C49.98 28.742 50.574 28.706 52.32 28.706H54.138V30.902H50.07C48.414 30.902 47.838 30.866 47.73 30.866C47.55 30.866 47.532 30.884 47.532 31.064V32.468C47.532 32.648 47.55 32.666 47.73 32.666C47.838 32.666 48.414 32.63 50.07 32.63H60.348C61.986 32.63 62.562 32.666 62.67 32.666C62.85 32.666 62.868 32.648 62.868 32.468V31.064C62.868 30.884 62.85 30.866 62.67 30.866C62.562 30.866 61.986 30.902 60.348 30.902H56.064V28.706H58.116C59.862 28.706 60.456 28.742 60.564 28.742C60.762 28.742 60.78 28.724 60.78 28.544V27.176C60.78 26.996 60.762 26.978 60.564 26.978C60.456 26.978 59.862 27.014 58.116 27.014H56.064V24.998H57.342C58.998 24.998 59.574 25.034 59.682 25.034C59.844 25.034 59.862 25.016 59.862 24.836V23.522C60.636 23.99 61.464 24.422 62.328 24.8C62.544 24.89 62.67 24.962 62.76 24.962C62.904 24.962 62.958 24.818 63.084 24.494C63.264 24.008 63.516 23.54 63.858 23.126C60.708 21.992 58.242 20.462 56.154 17.762L56.334 17.618ZM52.986 23.306C51.942 23.306 51.348 23.306 51.024 23.288C52.626 22.172 54.012 20.84 55.164 19.238C56.298 20.84 57.774 22.172 59.484 23.288C59.196 23.288 58.584 23.306 57.342 23.306H52.986ZM75.072 33.332C75.252 33.332 75.27 33.314 75.27 33.152V32.378H80.328V33.044C80.328 33.224 80.346 33.242 80.526 33.242H82.002C82.182 33.242 82.2 33.224 82.2 33.044C82.2 32.936 82.164 32.432 82.164 29.768V27.896C82.164 26.528 82.2 26.006 82.2 25.898C82.2 25.7 82.182 25.682 82.002 25.682C81.876 25.682 81.3 25.718 79.716 25.718H75.9C74.316 25.718 73.758 25.682 73.65 25.682C73.47 25.682 73.452 25.7 73.452 25.898C73.452 26.006 73.488 26.528 73.488 28.184V29.822C73.488 32.522 73.452 33.026 73.452 33.152C73.452 33.314 73.47 33.332 73.65 33.332H75.072ZM75.27 27.41H80.328V30.686H75.27V27.41ZM71.004 26.654L72.066 26.24C72.57 26.024 72.57 26.042 72.57 25.466C72.57 25.034 72.588 24.512 72.624 24.206C72.102 24.458 71.544 24.674 71.004 24.854V22.064C72.228 22.064 72.642 22.1 72.75 22.1C72.93 22.1 72.948 22.082 72.948 21.884V20.534C72.948 20.354 72.93 20.336 72.75 20.336C72.642 20.336 72.228 20.372 71.004 20.372V19.472C71.004 18.248 71.022 17.87 71.112 17.654C71.166 17.528 71.238 17.42 71.238 17.276C71.238 17.186 71.13 17.114 70.932 17.096C70.32 17.006 69.726 16.97 69.042 16.952C69.168 17.78 69.186 18.356 69.186 19.508V20.372H68.862C67.584 20.372 67.188 20.336 67.08 20.336C66.882 20.336 66.864 20.354 66.864 20.534V21.884C66.864 22.082 66.882 22.1 67.08 22.1C67.188 22.1 67.584 22.064 68.862 22.064H69.186V25.43L68.412 25.628C67.782 25.79 67.296 25.88 66.756 25.934C66.846 26.564 66.972 27.284 67.098 27.77C67.152 27.932 67.224 27.986 67.332 27.986C67.422 27.986 67.53 27.932 67.638 27.86C67.746 27.806 67.89 27.698 68.214 27.59C68.538 27.5 68.862 27.392 69.186 27.284V30.722C69.186 31.226 69.024 31.424 68.61 31.424C68.214 31.424 67.656 31.406 67.17 31.352C67.35 31.658 67.53 32.144 67.656 32.72C67.782 33.278 67.782 33.278 68.34 33.278C69.582 33.278 70.05 33.188 70.446 32.9C70.914 32.558 71.04 32.09 71.04 31.19C71.04 30.29 71.004 28.796 71.004 27.536V26.654ZM80.814 19.346C80.778 20.948 80.598 22.28 80.364 22.622C80.202 22.856 79.914 22.982 79.518 22.982C79.068 22.982 78.528 22.946 77.88 22.856C78.024 23.126 78.186 23.612 78.276 24.152C78.366 24.674 78.402 24.71 78.96 24.71C79.698 24.71 80.274 24.692 80.796 24.602C81.264 24.512 81.732 24.242 82.002 23.72C82.344 23.09 82.578 21.686 82.65 19.166C82.668 18.752 82.668 18.338 82.704 17.906C82.722 17.708 82.668 17.672 82.488 17.672C82.38 17.672 81.786 17.708 80.112 17.708H75.45C73.776 17.708 73.2 17.672 73.092 17.672C72.912 17.672 72.894 17.69 72.894 17.87V19.184C72.894 19.364 72.912 19.382 73.092 19.382C73.2 19.382 73.776 19.346 75.45 19.346H76.008C75.846 21.56 74.802 22.964 72.516 23.918C72.84 24.116 73.164 24.404 73.434 24.818C73.614 25.106 73.704 25.232 73.83 25.232C73.92 25.232 74.046 25.16 74.244 25.052C76.62 23.756 77.664 21.92 77.844 19.346H80.814ZM100.182 23.918C101.928 23.918 102.54 23.954 102.63 23.954C102.81 23.954 102.828 23.936 102.828 23.738V22.46C102.828 22.298 102.81 22.28 102.63 22.28C102.54 22.28 101.928 22.316 100.182 22.316H97.95V20.516H99.39C101.046 20.516 101.622 20.552 101.73 20.552C101.91 20.552 101.928 20.534 101.928 20.336V19.058C101.928 18.878 101.91 18.86 101.73 18.86C101.622 18.86 101.046 18.896 99.39 18.896H97.95V18.77C97.95 18.068 97.986 17.744 98.058 17.528C98.094 17.402 98.148 17.294 98.148 17.168C98.148 17.078 98.04 17.006 97.86 16.988C97.266 16.916 96.69 16.88 95.988 16.862C96.096 17.582 96.114 18.032 96.114 18.896H95.016C93.342 18.896 92.784 18.86 92.676 18.86C92.478 18.86 92.46 18.878 92.46 19.058V20.336C92.46 20.534 92.478 20.552 92.676 20.552C92.784 20.552 93.342 20.516 95.016 20.516H96.114V22.316H94.44C92.694 22.316 92.082 22.28 91.974 22.28C91.812 22.28 91.794 22.298 91.794 22.46V23.738C91.794 23.936 91.812 23.954 91.974 23.954C92.082 23.954 92.694 23.918 94.44 23.918H100.182ZM98.67 27.338V30.92C98.67 31.316 98.49 31.442 98.148 31.46C97.5 31.496 96.852 31.478 96.024 31.406C96.258 31.748 96.438 32.162 96.546 32.684C96.672 33.26 96.69 33.26 97.23 33.242C98.814 33.242 99.498 33.134 99.912 32.828C100.38 32.468 100.524 31.982 100.524 31.298C100.524 30.686 100.506 29.912 100.506 29.084V27.338C101.856 27.356 102.396 27.374 102.522 27.374C102.684 27.374 102.702 27.356 102.702 27.176V25.88C102.702 25.7 102.684 25.682 102.522 25.682C102.396 25.682 101.856 25.718 100.506 25.718C100.506 25.286 100.524 25.088 100.596 24.926C100.632 24.836 100.686 24.746 100.686 24.62C100.686 24.53 100.578 24.44 100.398 24.422C99.948 24.35 99.21 24.278 98.562 24.242C98.616 24.62 98.652 25.106 98.67 25.718H94.314C92.568 25.718 91.956 25.682 91.866 25.682C91.686 25.682 91.668 25.7 91.668 25.88V27.176C91.668 27.356 91.686 27.374 91.866 27.374C91.956 27.374 92.568 27.338 94.314 27.338H98.67ZM88.536 30.776C88.536 32.234 88.5 32.9 88.5 33.008C88.5 33.188 88.518 33.206 88.698 33.206H90.192C90.372 33.206 90.39 33.188 90.39 33.008C90.39 32.918 90.354 32.234 90.354 30.776V24.296C90.66 23.882 90.93 23.468 91.164 23.072C91.344 22.766 91.47 22.64 91.596 22.55C91.722 22.46 91.794 22.424 91.794 22.316C91.794 22.172 91.704 22.082 91.542 21.956C91.146 21.668 90.678 21.362 90.21 21.11C90.084 21.434 89.904 21.794 89.742 22.064C88.86 23.468 87.69 24.836 86.268 25.952C86.484 26.24 86.718 26.78 86.862 27.248C86.934 27.5 87.006 27.626 87.114 27.626C87.204 27.626 87.312 27.536 87.492 27.392C87.852 27.086 88.23 26.744 88.572 26.384C88.554 27.032 88.536 27.752 88.536 28.292V30.776ZM90.102 16.988C89.994 17.24 89.814 17.546 89.562 17.87C88.716 18.914 87.654 19.904 86.412 20.66C86.718 20.93 87.042 21.344 87.276 21.74C87.438 22.028 87.51 22.154 87.618 22.154C87.69 22.154 87.798 22.082 87.996 21.938C89.328 20.912 90.372 19.832 91.11 18.86C91.326 18.608 91.452 18.5 91.65 18.41C91.758 18.356 91.83 18.302 91.83 18.176C91.83 18.032 91.74 17.96 91.596 17.852C91.2 17.564 90.642 17.222 90.102 16.988ZM93.252 28.472C93.144 28.526 93.09 28.58 93.09 28.634C93.09 28.688 93.126 28.742 93.18 28.796C93.846 29.498 94.422 30.272 94.89 31.154C94.944 31.244 94.98 31.28 95.034 31.28C95.07 31.28 95.142 31.262 95.25 31.19L96.384 30.416C96.582 30.29 96.6 30.236 96.492 30.074C95.988 29.282 95.358 28.472 94.692 27.86C94.548 27.734 94.512 27.734 94.332 27.824L93.252 28.472ZM110.406 19.418H109.254L109.362 19.04C109.434 18.734 109.47 18.626 109.542 18.518C109.614 18.41 109.668 18.32 109.668 18.212C109.668 18.104 109.614 18.05 109.398 17.996C108.948 17.87 108.39 17.744 107.832 17.654C107.814 18.014 107.796 18.302 107.742 18.5C107.472 19.616 107.04 20.66 106.356 21.686C106.716 21.794 107.094 21.974 107.454 22.208C107.67 22.352 107.796 22.424 107.886 22.424C108.012 22.424 108.084 22.298 108.21 22.028C108.372 21.722 108.534 21.38 108.696 21.002H110.406V22.64H108.894C107.22 22.64 106.644 22.604 106.536 22.604C106.356 22.604 106.338 22.622 106.338 22.802V24.08C106.338 24.278 106.356 24.296 106.536 24.296C106.644 24.296 107.22 24.26 108.894 24.26H110.406V25.808H109.542C107.976 25.808 107.436 25.772 107.31 25.772C107.13 25.772 107.112 25.79 107.112 25.97C107.112 26.096 107.148 26.528 107.148 27.608V29.966C107.148 31.136 107.112 31.622 107.112 31.748C107.112 31.928 107.13 31.946 107.31 31.946H108.75C108.93 31.946 108.948 31.928 108.948 31.748C108.948 31.64 108.912 31.136 108.912 30.056V27.392H110.406V29.786C110.406 32 110.37 33.098 110.37 33.224C110.37 33.386 110.388 33.404 110.568 33.404H112.026C112.206 33.404 112.224 33.386 112.224 33.224C112.224 33.116 112.188 31.982 112.188 29.768V27.392H113.772V29.876C113.772 30.218 113.646 30.326 113.358 30.326C113.142 30.326 112.89 30.308 112.566 30.272C112.764 30.614 112.89 30.992 112.962 31.406C113.052 31.928 113.052 31.946 113.61 31.946C114.312 31.946 114.816 31.856 115.122 31.604C115.482 31.316 115.536 30.956 115.536 30.452C115.536 29.966 115.5 29.426 115.5 28.418V27.788C115.5 26.636 115.536 26.078 115.536 25.97C115.536 25.79 115.518 25.772 115.338 25.772C115.212 25.772 114.69 25.808 113.124 25.808H112.188V24.26H113.394C115.068 24.26 115.626 24.296 115.734 24.296C115.914 24.296 115.932 24.278 115.932 24.08V22.802C115.932 22.622 115.914 22.604 115.734 22.604C115.626 22.604 115.068 22.64 113.394 22.64H112.188V21.002H113.052C114.474 21.002 114.942 21.038 115.05 21.038C115.23 21.038 115.248 21.02 115.248 20.84V19.58C115.248 19.4 115.23 19.382 115.05 19.382C114.942 19.382 114.474 19.418 113.052 19.418H112.188V18.806C112.188 18.23 112.206 18.014 112.296 17.816C112.35 17.672 112.422 17.564 112.422 17.42C112.422 17.312 112.314 17.24 112.152 17.24C111.576 17.168 110.964 17.132 110.28 17.114C110.37 17.672 110.406 18.05 110.406 18.824V19.418ZM121.998 19.742C121.998 18.518 122.016 18.14 122.106 17.924C122.16 17.798 122.232 17.708 122.232 17.546C122.232 17.456 122.124 17.366 121.926 17.348C121.314 17.276 120.666 17.24 120 17.24C120.126 18.05 120.144 18.626 120.144 19.778V30.668C120.144 31.244 119.964 31.37 119.37 31.37C118.722 31.37 118.29 31.334 117.642 31.262C117.876 31.676 118.038 32.126 118.164 32.666C118.29 33.242 118.29 33.242 118.83 33.242C120.414 33.242 120.9 33.116 121.404 32.774C121.926 32.414 122.052 31.82 122.052 30.938C122.052 30.038 121.998 28.598 121.998 27.338V19.742ZM116.742 26.168C116.742 27.698 116.706 28.436 116.706 28.544C116.706 28.724 116.724 28.742 116.904 28.742H118.344C118.542 28.742 118.56 28.724 118.56 28.544C118.56 28.436 118.524 27.698 118.524 26.168V21.2C118.524 19.886 118.524 19.526 118.578 19.274C118.614 19.148 118.704 19.022 118.704 18.878C118.704 18.77 118.614 18.698 118.434 18.68C117.822 18.608 117.246 18.572 116.616 18.554C116.724 19.4 116.742 20.03 116.742 21.218V26.168Z" fill="white"/>
<path d="M188.52 34.68H178.72C180.84 32.36 182.88 30.52 184.84 28.24C186.96 25.76 188.36 23.36 188.36 20.24C188.36 16.12 185.44 12.48 180 12.48C174.48 12.48 171.72 16.88 171.56 20.2L176.28 20.96C176.4 18.92 177.84 17 180.08 17C182.16 17 183.32 18.4 183.32 20.36C183.32 22.44 182 24.56 179.76 27C177.16 29.88 174.52 32.6 171.72 35.36V39H188.52V34.68ZM212.543 25.96C212.543 17.6 209.463 12.48 202.583 12.48C195.703 12.48 192.623 17.6 192.623 25.96C192.623 34.8 195.903 39.52 202.583 39.52C209.263 39.52 212.543 34.8 212.543 25.96ZM207.463 26C207.463 32.08 205.783 34.92 202.583 34.92C199.383 34.92 197.703 32.08 197.703 26C197.703 19.64 199.583 17 202.583 17C205.583 17 207.463 19.64 207.463 26ZM233.286 34.68H223.486C225.606 32.36 227.646 30.52 229.606 28.24C231.726 25.76 233.126 23.36 233.126 20.24C233.126 16.12 230.206 12.48 224.766 12.48C219.246 12.48 216.486 16.88 216.326 20.2L221.046 20.96C221.166 18.92 222.606 17 224.846 17C226.926 17 228.086 18.4 228.086 20.36C228.086 22.44 226.766 24.56 224.526 27C221.926 29.88 219.286 32.6 216.486 35.36V39H233.286V34.68ZM255.668 34.68H245.868C247.988 32.36 250.028 30.52 251.988 28.24C254.108 25.76 255.508 23.36 255.508 20.24C255.508 16.12 252.588 12.48 247.148 12.48C241.628 12.48 238.868 16.88 238.708 20.2L243.428 20.96C243.548 18.92 244.988 17 247.228 17C249.308 17 250.468 18.4 250.468 20.36C250.468 22.44 249.148 24.56 246.908 27C244.308 29.88 241.668 32.6 238.868 35.36V39H255.668V34.68ZM267.491 36.24C267.491 34.44 266.051 33 264.251 33C262.451 33 261.011 34.44 261.011 36.24C261.011 38.04 262.451 39.48 264.251 39.48C266.051 39.48 267.491 38.04 267.491 36.24ZM280.578 13H275.898L268.538 17.96L270.978 21.72L275.658 18.64V39H280.578V13ZM299.761 13H295.081L287.721 17.96L290.161 21.72L294.841 18.64V39H299.761V13ZM313.224 36.24C313.224 34.44 311.784 33 309.984 33C308.184 33 306.744 34.44 306.744 36.24C306.744 38.04 308.184 39.48 309.984 39.48C311.784 39.48 313.224 38.04 313.224 36.24ZM335.151 34.68H325.351C327.471 32.36 329.511 30.52 331.471 28.24C333.591 25.76 334.991 23.36 334.991 20.24C334.991 16.12 332.071 12.48 326.631 12.48C321.111 12.48 318.351 16.88 318.191 20.2L322.911 20.96C323.031 18.92 324.471 17 326.711 17C328.791 17 329.951 18.4 329.951 20.36C329.951 22.44 328.631 24.56 326.391 27C323.791 29.88 321.151 32.6 318.351 35.36V39H335.151V34.68ZM357.974 30.72C357.974 26.6 355.054 22.72 349.414 22.72C348.174 22.72 346.814 23.04 346.094 23.4V17.32H356.734V13H341.454V27.96H346.134C346.654 27.44 347.614 26.88 348.854 26.88C351.574 26.88 353.054 28.72 353.054 30.84C353.054 33.36 351.374 35 348.694 35C346.494 35 344.774 33.48 344.254 31.6L339.974 33.64C341.134 36.96 344.174 39.52 348.734 39.52C354.374 39.52 357.974 35.72 357.974 30.72Z" fill="white"/>
<path d="M415.01 19.5H411.5L405.98 23.22L407.81 26.04L411.32 23.73V39H415.01V19.5ZM433.927 35.76H426.577C428.167 34.02 429.697 32.64 431.167 30.93C432.757 29.07 433.807 27.27 433.807 24.93C433.807 21.84 431.617 19.11 427.537 19.11C423.397 19.11 421.327 22.41 421.207 24.9L424.747 25.47C424.837 23.94 425.917 22.5 427.597 22.5C429.157 22.5 430.027 23.55 430.027 25.02C430.027 26.58 429.037 28.17 427.357 30C425.407 32.16 423.427 34.2 421.327 36.27V39H433.927V35.76ZM441.294 26.34C441.294 24.99 440.214 23.91 438.864 23.91C437.514 23.91 436.434 24.99 436.434 26.34C436.434 27.69 437.514 28.77 438.864 28.77C440.214 28.77 441.294 27.69 441.294 26.34ZM441.294 36.93C441.294 35.58 440.214 34.5 438.864 34.5C437.514 34.5 436.434 35.58 436.434 36.93C436.434 38.28 437.514 39.36 438.864 39.36C440.214 39.36 441.294 38.28 441.294 36.93ZM458.55 33.18C458.55 30.75 457.02 29.01 455.13 28.44C456.57 28.02 457.95 26.43 457.95 24.45C457.95 21.66 455.82 19.11 451.59 19.11C447.69 19.11 445.5 21.87 445.23 24.27L448.59 24.99C448.74 23.73 449.76 22.5 451.5 22.5C453.15 22.5 454.17 23.43 454.17 24.72C454.17 26.19 453.12 27.15 451.29 27.21C450.69 27.24 449.55 27.21 449.55 27.21V30.06C449.55 30.06 450.93 30.03 451.53 30.06C453.66 30.15 454.77 31.32 454.77 32.91C454.77 34.71 453.42 36 451.44 36C449.43 36 448.14 34.83 447.72 33.18L444.39 34.5C445.17 37.38 447.54 39.39 451.5 39.39C455.7 39.39 458.55 36.78 458.55 33.18ZM475.757 29.22C475.757 22.95 473.447 19.11 468.287 19.11C463.127 19.11 460.817 22.95 460.817 29.22C460.817 35.85 463.277 39.39 468.287 39.39C473.297 39.39 475.757 35.85 475.757 29.22ZM471.947 29.25C471.947 33.81 470.687 35.94 468.287 35.94C465.887 35.94 464.627 33.81 464.627 29.25C464.627 24.48 466.037 22.5 468.287 22.5C470.537 22.5 471.947 24.48 471.947 29.25ZM486.304 27.84H478.744V30.84H486.304V27.84ZM499.373 19.5H495.863L490.343 23.22L492.173 26.04L495.683 23.73V39H499.373V19.5ZM519.01 33.57C519.01 31.35 517.87 29.58 515.95 28.74C517.3 28.14 518.5 26.61 518.5 24.6C518.5 21.81 516.4 19.11 512.05 19.11C507.61 19.11 505.6 21.84 505.6 24.6C505.6 26.61 506.8 28.14 508.15 28.74C506.23 29.58 505.09 31.35 505.09 33.57C505.09 37.14 508.12 39.39 512.05 39.39C515.98 39.39 519.01 37.14 519.01 33.57ZM514.81 24.78C514.81 26.4 513.55 27.3 512.05 27.3C510.55 27.3 509.29 26.4 509.29 24.78C509.29 23.4 510.37 22.23 512.05 22.26C513.73 22.29 514.81 23.4 514.81 24.78ZM515.32 33.27C515.32 35.04 513.85 36.09 512.05 36.09C510.25 36.09 508.78 35.04 508.78 33.27C508.78 31.56 510.13 30.39 512.05 30.39C513.97 30.39 515.32 31.56 515.32 33.27ZM527.158 26.34C527.158 24.99 526.078 23.91 524.728 23.91C523.378 23.91 522.298 24.99 522.298 26.34C522.298 27.69 523.378 28.77 524.728 28.77C526.078 28.77 527.158 27.69 527.158 26.34ZM527.158 36.93C527.158 35.58 526.078 34.5 524.728 34.5C523.378 34.5 522.298 35.58 522.298 36.93C522.298 38.28 523.378 39.36 524.728 39.36C526.078 39.36 527.158 38.28 527.158 36.93ZM544.833 29.22C544.833 22.95 542.523 19.11 537.363 19.11C532.203 19.11 529.893 22.95 529.893 29.22C529.893 35.85 532.353 39.39 537.363 39.39C542.373 39.39 544.833 35.85 544.833 29.22ZM541.023 29.25C541.023 33.81 539.763 35.94 537.363 35.94C534.963 35.94 533.703 33.81 533.703 29.25C533.703 24.48 535.113 22.5 537.363 22.5C539.613 22.5 541.023 24.48 541.023 29.25ZM561.62 29.22C561.62 22.95 559.31 19.11 554.15 19.11C548.99 19.11 546.68 22.95 546.68 29.22C546.68 35.85 549.14 39.39 554.15 39.39C559.16 39.39 561.62 35.85 561.62 29.22ZM557.81 29.25C557.81 33.81 556.55 35.94 554.15 35.94C551.75 35.94 550.49 33.81 550.49 29.25C550.49 24.48 551.9 22.5 554.15 22.5C556.4 22.5 557.81 24.48 557.81 29.25Z" fill="white"/>
<path d="M373.37 29.908H368.51V27.28H373.91V25.3H366.26V37H368.51V31.888H373.37V29.908ZM381.547 31.816C383.185 31.312 383.977 29.998 383.977 28.594C383.977 27.028 383.131 25.3 379.999 25.3H375.805V37H378.019V32.032H379.081L382.843 37.126L384.643 35.758L381.547 31.816ZM378.019 30.178V27.19H379.873C381.403 27.19 381.781 27.874 381.781 28.63C381.781 29.494 381.187 30.178 379.873 30.178H378.019ZM388.477 25.3H386.227V37H388.477V25.3Z" fill="white"/>
<path d="M217.72 82.44C218.296 82.616 218.808 82.872 219.128 83.128C219.256 83.24 219.368 83.288 219.496 83.288C219.656 83.288 219.8 83.208 219.944 83.048C221.48 81.432 222.424 79.8 223.368 77.672C223.624 77.096 223.752 76.872 223.928 76.696C224.024 76.6 224.088 76.488 224.088 76.376C224.088 76.28 224.04 76.184 223.896 76.12C223.448 75.88 222.728 75.592 221.912 75.304C221.864 75.88 221.624 76.696 221.192 77.672C220.552 79.128 219.4 80.952 217.72 82.44ZM225.896 76.36C227.48 78.04 228.664 79.912 229.848 82.584C229.912 82.792 230.024 82.824 230.232 82.728C230.744 82.456 231.256 82.12 231.56 81.88C231.672 81.8 231.72 81.72 231.72 81.624C231.72 81.544 231.704 81.48 231.656 81.4C230.728 79.352 229.384 77.272 227.64 75.528C227.544 75.432 227.48 75.4 227.4 75.4C227.336 75.4 227.256 75.432 227.176 75.496C226.904 75.672 226.472 75.976 225.896 76.36ZM230.84 72.696C229.88 72.696 229.112 73.416 229.112 74.408C229.112 75.368 229.88 76.12 230.84 76.12C231.8 76.12 232.568 75.368 232.568 74.408C232.568 73.448 231.8 72.696 230.84 72.696ZM230.84 73.464C231.384 73.464 231.784 73.864 231.784 74.408C231.784 74.952 231.384 75.352 230.84 75.352C230.296 75.352 229.896 74.952 229.896 74.408C229.896 73.864 230.296 73.464 230.84 73.464ZM234.584 78.04C235.752 78.504 236.792 79.032 237.816 79.784C237.896 79.848 237.944 79.88 238.008 79.88C238.072 79.88 238.136 79.816 238.216 79.72C238.472 79.352 238.744 78.936 238.92 78.504C238.952 78.44 238.984 78.376 238.984 78.328C238.984 78.232 238.92 78.168 238.808 78.088C237.896 77.432 236.936 76.92 235.736 76.52C235.592 76.488 235.512 76.568 235.432 76.68C235.24 76.936 234.984 77.4 234.584 78.04ZM236.52 74.28C237.544 74.744 238.792 75.56 239.624 76.248C239.704 76.312 239.784 76.36 239.864 76.36C239.912 76.36 239.976 76.344 240.024 76.264C240.296 75.976 240.616 75.464 240.84 75.064C240.888 74.984 240.904 74.92 240.904 74.856C240.904 74.792 240.872 74.712 240.776 74.648C239.896 73.88 238.792 73.288 237.768 72.872C237.576 72.776 237.48 72.808 237.368 73C237.096 73.416 236.792 73.864 236.52 74.28ZM235.848 83.4C236.264 84.072 236.696 84.696 237.032 85.032C237.128 85.16 237.24 85.224 237.352 85.224C237.432 85.224 237.512 85.192 237.608 85.096C237.768 84.936 238.152 84.76 238.536 84.552C240.44 83.512 241.928 82.6 243.32 81.544C244.888 80.328 245.896 79.448 247.384 77.848C247.512 77.72 247.56 77.608 247.56 77.48C247.56 77.384 247.528 77.288 247.48 77.176C247.24 76.488 247.112 76.088 247.016 75.384C245.4 77.336 243.688 78.872 242.408 79.848C240.856 81.064 239.544 81.816 238.024 82.616C237.08 83.096 236.52 83.272 235.848 83.4ZM260.2 75.688C259.56 77.464 258.744 78.824 257.496 80.248C256.024 81.96 254.6 83.064 252.264 84.248C252.856 84.488 253.384 84.776 253.752 85.128C253.88 85.256 254.024 85.304 254.152 85.304C254.296 85.304 254.44 85.256 254.584 85.16C256.2 84.248 257.752 82.92 259.128 81.352C260.472 79.8 261.448 78.04 262.232 76.152C262.376 75.832 262.456 75.672 262.6 75.528C262.744 75.4 262.824 75.272 262.824 75.128C262.824 75.032 262.792 74.952 262.712 74.856C262.408 74.472 261.976 74.072 261.544 73.8C261.432 73.752 261.336 73.72 261.24 73.72C261.16 73.72 261.08 73.736 261 73.784C260.776 73.912 260.6 73.944 260.12 73.944H254.408C252.904 73.944 252.056 73.912 251.336 73.832C251.368 74.296 251.432 75.128 251.48 75.448C251.512 75.672 251.576 75.784 251.784 75.768C252.472 75.736 253.384 75.688 254.424 75.688H260.2ZM272.191 78.808C272.751 78.264 273.231 77.736 273.647 77.256C273.791 77.096 274.159 76.712 274.367 76.6C274.527 76.52 274.607 76.408 274.607 76.296C274.607 76.216 274.543 76.104 274.431 76.008C274.175 75.784 273.503 75.368 272.959 75.048C272.751 75.592 272.479 75.992 272.111 76.424C270.159 78.632 267.983 80.312 265.471 81.624C265.903 81.768 266.335 82.088 266.623 82.424C266.703 82.52 266.831 82.584 266.943 82.584C267.007 82.584 267.087 82.568 267.151 82.52C267.967 82.104 269.375 81.128 270.463 80.216V82.952C270.463 83.8 270.431 84.6 270.415 85.512C270.399 85.704 270.495 85.784 270.671 85.8C271.087 85.832 271.551 85.832 271.967 85.8C272.159 85.784 272.255 85.704 272.239 85.512C272.223 84.696 272.191 83.672 272.191 82.904V78.808ZM288.607 81.528H283.119C281.855 81.528 280.927 81.496 280.175 81.448C280.175 82.12 280.207 82.696 280.255 83.112C280.271 83.288 280.335 83.352 280.479 83.352C281.247 83.336 282.095 83.288 283.103 83.288H288.607V83.928C288.607 84.168 288.655 84.184 288.911 84.2C289.359 84.232 289.871 84.232 290.319 84.2C290.543 84.184 290.607 84.136 290.607 83.976C290.591 83.528 290.543 82.248 290.543 81.08V77.256C290.543 76.408 290.575 75.576 290.575 74.728C290.591 74.52 290.511 74.456 290.255 74.456C289.407 74.488 288.559 74.52 287.727 74.52H282.975C281.823 74.52 281.263 74.504 280.303 74.408C280.303 74.936 280.335 75.688 280.383 76.12C280.383 76.312 280.447 76.392 280.623 76.392C281.183 76.328 281.935 76.296 283.023 76.296H288.607V81.528ZM295.983 76.104C295.535 78.12 294.815 79.672 293.855 81.08C294.047 81.336 294.255 81.832 294.415 82.328C294.463 82.504 294.511 82.584 294.575 82.584C294.639 82.584 294.703 82.488 294.799 82.312C295.375 81.384 295.791 80.312 296.095 79.144C296.079 82.776 295.983 85.816 295.983 86.072C295.983 86.232 295.999 86.248 296.159 86.248H297.439C297.583 86.248 297.599 86.232 297.599 86.072C297.599 85.8 297.503 82.392 297.487 78.184C297.727 78.936 298.047 79.608 298.367 80.2C298.447 80.36 298.511 80.456 298.559 80.456C298.623 80.456 298.671 80.36 298.735 80.168C298.879 79.736 299.087 79.288 299.279 78.984C298.623 78.136 297.967 77.224 297.583 76.104C298.351 76.12 298.623 76.136 298.735 76.136V76.776C298.735 76.952 298.751 76.968 298.927 76.968C299.023 76.968 299.551 76.936 301.103 76.936H302.847V77.944H301.743C300.271 77.944 299.759 77.912 299.647 77.912C299.487 77.912 299.471 77.928 299.471 78.104C299.471 78.184 299.503 78.584 299.503 79.544V81.736C299.503 82.68 299.471 83.08 299.471 83.176C299.471 83.336 299.487 83.352 299.647 83.352C299.759 83.352 300.271 83.32 301.743 83.32H305.583C307.055 83.32 307.567 83.352 307.679 83.352C307.839 83.352 307.855 83.336 307.855 83.176C307.855 83.08 307.823 82.68 307.823 81.736V79.544C307.823 78.584 307.855 78.184 307.855 78.104C307.855 77.928 307.839 77.912 307.679 77.912C307.567 77.912 307.055 77.944 305.583 77.944H304.319V76.936H306.447C308.015 76.936 308.543 76.968 308.639 76.968C308.799 76.968 308.815 76.952 308.815 76.776V75.768C308.815 75.608 308.799 75.592 308.639 75.592C308.543 75.592 308.015 75.624 306.447 75.624H305.999V74.472C307.455 74.472 307.983 74.504 308.079 74.504C308.239 74.504 308.255 74.488 308.255 74.312V73.336C308.255 73.176 308.239 73.16 308.079 73.16C307.983 73.16 307.503 73.192 305.999 73.192V73.16C305.999 72.552 306.031 72.232 306.079 72.136C306.127 72.04 306.159 71.96 306.159 71.864C306.159 71.784 306.095 71.736 305.951 71.72C305.519 71.672 304.911 71.64 304.431 71.624C304.511 72.056 304.527 72.52 304.527 73.16V73.192H302.607V73.16C302.607 72.552 302.639 72.232 302.687 72.12C302.719 72.024 302.767 71.944 302.767 71.848C302.767 71.784 302.687 71.72 302.543 71.704C302.127 71.656 301.519 71.624 301.023 71.608C301.103 72.056 301.119 72.52 301.119 73.16V73.192C299.967 73.192 299.519 73.16 299.439 73.16C299.279 73.16 299.263 73.176 299.263 73.336V74.312C299.263 74.488 299.279 74.504 299.439 74.504C299.519 74.504 299.967 74.488 301.119 74.472V75.624C299.567 75.624 299.039 75.592 298.927 75.592V74.824C298.927 74.664 298.911 74.648 298.751 74.648C298.639 74.648 298.367 74.68 297.535 74.68V73.736C297.535 72.664 297.551 72.392 297.647 72.216C297.711 72.104 297.743 72.024 297.743 71.896C297.743 71.816 297.631 71.752 297.471 71.72C296.991 71.656 296.527 71.624 295.935 71.608C296.031 72.248 296.047 72.792 296.047 73.752V74.68H295.855C294.831 74.68 294.527 74.648 294.431 74.648C294.255 74.648 294.255 74.664 294.255 74.824V75.96C294.255 76.12 294.255 76.136 294.431 76.136C294.527 76.136 294.831 76.104 295.855 76.104H295.983ZM302.607 75.624V74.472H304.527V75.624H302.607ZM306.319 82.168H304.319V81.176H306.319V82.168ZM306.319 79.096V80.04H304.319V79.096H306.319ZM300.975 82.168V81.176H302.863V82.168H300.975ZM300.975 80.04V79.096H302.863V80.04H300.975ZM304.447 84.168C304.271 84.296 304.255 84.344 304.383 84.456C305.279 85.192 306.383 85.768 307.647 86.184C308.143 86.312 308.159 86.312 308.351 85.864C308.511 85.496 308.703 85.176 308.927 84.872C307.631 84.6 306.479 84.168 305.487 83.528C305.359 83.448 305.311 83.464 305.135 83.592L304.447 84.168ZM298.191 84.968C298.415 85.224 298.639 85.528 298.815 85.864C298.943 86.168 298.991 86.264 299.135 86.264C299.215 86.264 299.327 86.232 299.503 86.184C300.607 85.832 301.551 85.336 302.239 84.792C302.415 84.664 302.575 84.584 302.703 84.536C302.815 84.504 302.879 84.456 302.879 84.376C302.879 84.28 302.847 84.248 302.719 84.152C302.431 83.912 302.095 83.688 301.615 83.416C301.471 83.592 301.311 83.72 301.135 83.832C300.367 84.36 299.391 84.712 298.191 84.968ZM322.383 81.976C323.967 81.976 324.511 82.008 324.607 82.008C324.751 82.008 324.767 81.992 324.767 81.816V80.632C324.767 80.456 324.751 80.44 324.607 80.44C324.511 80.44 323.967 80.472 322.383 80.472H322.031V77.64H322.159C323.551 77.64 324.031 77.672 324.127 77.672C324.303 77.672 324.319 77.656 324.319 77.48V76.296C324.319 76.136 324.303 76.12 324.127 76.12C324.031 76.12 323.551 76.152 322.159 76.152H317.247V74.68C319.039 74.44 320.943 74.04 322.815 73.432C323.103 73.336 323.295 73.304 323.487 73.288C323.647 73.272 323.743 73.192 323.743 73.096C323.743 72.984 323.711 72.92 323.599 72.808C323.279 72.504 322.799 72.088 322.335 71.768C321.983 71.976 321.647 72.12 321.295 72.248C319.983 72.696 318.511 73.048 317.023 73.224C316.511 73.016 315.999 72.888 315.423 72.744C315.503 73.608 315.519 74.344 315.519 75.56V80.472C314.607 80.472 314.239 80.44 314.175 80.44C314.015 80.44 313.999 80.456 313.999 80.632V81.816C313.999 81.992 314.015 82.008 314.175 82.008C314.271 82.008 314.815 81.976 316.399 81.976H322.383ZM317.247 80.472V77.64H320.335V80.472H317.247ZM310.223 85.224C310.687 85.592 311.087 85.832 311.487 86.056C311.615 86.12 311.711 86.136 311.791 86.136C311.903 86.136 311.967 86.056 311.983 85.912C311.999 85.768 312.079 85.592 312.207 85.288C312.671 84.216 313.151 82.968 313.583 81.688C313.711 81.224 313.711 81.224 313.295 80.92C312.959 80.68 312.639 80.392 312.399 80.152C311.935 81.752 311.423 83 311.007 83.944C310.751 84.472 310.543 84.792 310.223 85.224ZM319.951 83.224C319.775 83.368 319.743 83.416 319.871 83.528C320.959 84.632 322.127 85.448 323.519 86.04C323.711 86.12 323.823 86.168 323.903 86.168C324.047 86.168 324.111 86.056 324.255 85.8C324.495 85.352 324.751 84.952 324.991 84.744C323.567 84.232 322.287 83.576 321.119 82.504C321.055 82.44 321.007 82.408 320.959 82.408C320.911 82.408 320.863 82.44 320.767 82.52L319.951 83.224ZM316.751 82.392C316.607 82.616 316.415 82.824 316.207 83C315.375 83.72 314.383 84.296 312.943 84.76C313.199 84.968 313.503 85.352 313.743 85.768C313.903 86.024 313.967 86.12 314.095 86.12C314.191 86.12 314.303 86.072 314.495 86.008C315.679 85.496 316.799 84.712 317.519 84.024C317.695 83.864 317.855 83.736 317.983 83.672C318.111 83.608 318.191 83.544 318.191 83.448C318.191 83.352 318.143 83.304 318.015 83.208C317.647 82.936 317.231 82.68 316.751 82.392ZM311.055 72.856C310.975 72.952 310.943 73 310.943 73.048C310.943 73.08 310.975 73.112 311.055 73.16C311.807 73.592 312.767 74.264 313.487 74.952C313.615 75.048 313.647 75.064 313.759 74.904L314.495 73.896C314.559 73.8 314.591 73.752 314.591 73.704C314.591 73.656 314.559 73.624 314.495 73.576C313.759 72.936 312.895 72.376 312.095 71.912C311.967 71.848 311.919 71.848 311.791 71.992L311.055 72.856ZM310.431 76.872C310.367 76.952 310.319 77.016 310.319 77.048C310.319 77.096 310.367 77.128 310.447 77.176C311.263 77.656 312.063 78.216 312.847 78.936C312.911 79 312.959 79.032 312.991 79.032C313.039 79.032 313.071 79 313.119 78.92L313.839 77.896C313.903 77.8 313.935 77.752 313.935 77.704C313.935 77.672 313.903 77.64 313.839 77.576C313.071 76.904 312.223 76.36 311.407 75.928C311.263 75.848 311.215 75.848 311.087 76.008L310.431 76.872ZM335.775 72.792C335.663 73.72 335.503 74.104 335.199 74.888C334.495 76.584 333.599 78.152 332.559 79.496C331.263 81.192 329.647 82.728 327.391 84.136C327.983 84.344 328.527 84.664 328.911 84.952C329.023 85.048 329.135 85.096 329.247 85.096C329.359 85.096 329.471 85.048 329.583 84.968C331.295 83.864 332.927 82.248 334.287 80.472C335.279 79.208 336.479 77.16 337.247 75.4C337.503 74.856 337.647 74.6 337.935 74.312C337.999 74.216 338.047 74.136 338.047 74.04C338.047 73.944 337.983 73.848 337.855 73.768C337.263 73.4 336.527 73.08 335.775 72.792ZM350.607 80.056C351.791 80.056 352.975 80.072 354.175 80.088C354.399 80.104 354.463 80.04 354.463 79.848C354.495 79.368 354.495 78.824 354.463 78.344C354.463 78.152 354.415 78.104 354.175 78.12C352.943 78.136 351.711 78.168 350.495 78.168H345.343C343.727 78.168 342.927 78.136 341.887 77.976C341.951 78.792 342.047 79.544 342.127 79.912C342.175 80.152 342.303 80.248 342.495 80.248C342.655 80.248 343.263 80.056 344.847 80.056H350.607ZM361.743 73.88C360.703 73.88 359.903 73.88 359.039 73.816C359.039 74.376 359.103 75.144 359.183 75.48C359.215 75.656 359.263 75.768 359.391 75.752C360.255 75.688 361.087 75.656 361.919 75.656L366.047 75.64C365.071 77.32 364.191 78.456 363.039 79.656C361.391 81.336 359.903 82.472 357.407 83.736C357.935 84.024 358.399 84.344 358.751 84.776C358.831 84.872 358.927 84.92 359.023 84.92C359.135 84.92 359.247 84.856 359.391 84.792C361.135 83.816 362.959 82.456 364.767 80.568C366.207 81.704 367.583 82.968 368.927 84.536C369.007 84.616 369.071 84.664 369.151 84.664C369.215 84.664 369.279 84.632 369.343 84.568C369.743 84.232 370.111 83.848 370.415 83.48C370.495 83.384 370.527 83.304 370.527 83.24C370.527 83.176 370.479 83.096 370.399 83.016C368.927 81.528 367.503 80.28 365.967 79.144C366.735 78.168 367.359 77.272 368.015 76.152C368.191 75.864 368.399 75.624 368.607 75.448C368.751 75.336 368.815 75.224 368.815 75.128C368.815 75.064 368.783 75 368.735 74.92C368.431 74.504 368.063 74.088 367.695 73.8C367.599 73.736 367.519 73.672 367.423 73.672C367.359 73.672 367.311 73.688 367.247 73.736C367.007 73.864 366.719 73.88 366.143 73.88H361.743Z" fill="white"/>
<path d="M202.608 80.52C202.608 79.092 201.768 77.818 199.654 77.818C198.604 77.818 197.498 78.14 196.896 78.392L197.302 79.792C197.806 79.554 198.674 79.302 199.43 79.302C200.536 79.302 201.054 79.904 201.054 80.562V80.702H199.948C199.556 80.702 199.178 80.702 198.884 80.73C197.358 80.856 196.434 81.71 196.434 82.956C196.434 84.412 197.61 85.196 199.066 85.182C199.892 85.168 200.55 84.888 201.054 84.468V85H202.608V80.52ZM199.038 82.144C199.29 82.116 199.584 82.116 199.906 82.116C200.284 82.116 200.69 82.116 201.054 82.13V82.718C200.62 83.278 199.85 83.67 199.08 83.67C198.436 83.67 197.96 83.432 197.96 82.956C197.96 82.536 198.352 82.214 199.038 82.144ZM208.099 83.516C207.833 83.628 207.609 83.684 207.399 83.684C206.881 83.684 206.545 83.348 206.545 82.76V79.442H208.113V78H206.545L206.559 76.404H204.865L204.851 78H203.661V79.442H204.851V82.914C204.851 84.454 205.761 85.182 207.049 85.182C207.427 85.182 207.833 85.126 208.267 85L208.099 83.516Z" fill="white"/>
<line y1="57" x2="568" y2="57" stroke="white" stroke-width="2"/>
</svg>
