<svg width="280" height="43" viewBox="0 0 280 43" fill="none" xmlns="http://www.w3.org/2000/svg">
<g clip-path="url(#clip0_242_316)">
<path d="M102.39 27.7401L97.4528 27.7355V6.34659H88.5618V1.98826H111.241V6.34659H102.39V27.7401ZM114.038 19.3799C114.194 22.0347 116.644 23.9743 119.842 23.9743C122.211 23.9743 123.909 23.1434 125.45 21.4399L128.728 24.134C127.229 26.2333 124.149 28.2146 119.567 28.2146C113.881 28.2146 109.419 24.2127 109.419 17.7157C109.419 12.17 113.013 7.41592 119.45 7.41592C125.886 7.41592 129.439 12.052 129.439 17.637C129.439 18.1925 129.4 18.7851 129.321 19.3799H114.04H114.038ZM124.58 15.6951C124.463 13.6745 122.723 11.3368 119.369 11.3368C116.328 11.3368 114.432 13.4754 114.236 15.6951H124.58ZM150.956 23.9743C149.14 26.2727 146.178 28.2123 142.072 28.2123C135.991 28.2123 131.568 24.2498 131.568 17.7921C131.568 12.0867 135.319 7.4136 142.189 7.4136C146.69 7.4136 149.535 9.67262 150.956 11.6516L147.798 14.5425C146.653 12.9963 144.757 11.6909 142.231 11.6909C138.597 11.6909 136.267 14.3064 136.267 17.7921C136.267 21.7547 138.835 23.854 142.111 23.854C144.48 23.854 146.573 22.5462 147.837 20.8821L150.956 23.972V23.9743ZM157.784 27.7378H153.007V0.800888H157.784V10.3485C158.573 8.64495 160.587 7.41592 163.155 7.41592C167.893 7.41592 170.263 10.823 170.341 14.6258V27.7332L165.563 27.7378C165.563 27.7378 165.603 23.5392 165.603 19.8937C165.603 18.0722 165.603 16.408 165.563 15.4961C165.485 13.3181 164.064 11.5729 161.575 11.5729C159.323 11.5729 157.863 13.119 157.784 14.7022V27.7355V27.7378ZM197.743 22.7846C195.452 25.8352 191.662 28.2516 186.213 28.2516C178.789 28.2516 172.946 23.4582 172.946 14.6628C172.946 7.09651 178 1.4698 186.372 1.4698C192.098 1.4698 195.849 4.40235 197.704 6.9368L194.19 10.1054C192.691 8.04548 189.966 6.02486 186.411 6.02486C181.239 6.02486 178.039 9.70965 178.039 14.6605C178.039 20.4053 181.751 23.6132 186.252 23.6132C190.003 23.6132 192.649 21.5926 194.269 19.3753L197.743 22.7823V22.7846ZM209.354 28.2123C203.273 28.2123 199.01 24.2104 199.01 17.7134C199.01 11.6516 202.998 7.4136 209.354 7.4136C216.383 7.4136 219.701 12.1284 219.701 17.7134C219.701 23.854 215.751 28.2123 209.354 28.2123ZM209.354 11.6932C205.681 11.6932 203.707 14.1883 203.707 17.7157C203.707 21.5579 205.958 23.8563 209.354 23.8563C212.75 23.8563 215.001 21.4005 215.001 17.7157C215.001 14.348 213.105 11.6932 209.354 11.6932ZM226.449 27.7378H221.671V7.93206H226.449V10.3485C227.238 8.64495 229.252 7.41592 231.819 7.41592C236.558 7.41592 238.927 10.823 239.005 14.6258V27.7401H234.228C234.228 27.7401 234.267 23.5415 234.267 19.8961C234.267 18.0745 234.267 16.4103 234.228 15.4984C234.149 13.3204 232.728 11.5752 230.239 11.5752C227.987 11.5752 226.527 13.1213 226.449 14.7045V27.7378ZM253.733 12.0103H249.151V27.7355L244.374 27.7401V12.0126H240.779V7.93206H244.374V6.1105C244.374 2.10862 247.098 -0.148084 250.533 0.00930623C251.915 0.0486538 252.423 0.145866 253.765 0.976795V4.87221C253.016 4.35606 251.717 4.04822 251.165 4.04822C249.94 4.08757 249.151 4.92081 249.151 6.70303V7.93206H253.733V12.0126V12.0103ZM260.55 14.3064L262.774 10.5753L263.63 11.0475L261.63 14.9105L260.55 14.3041V14.3064ZM271.107 20.1622L270.918 21.6621H263.909L268.23 16.8825C268.68 16.3895 269.037 15.9844 269.303 15.665C269.568 15.3456 269.755 15.1049 269.856 14.9406C270.052 14.6258 270.152 14.2508 270.152 13.8134C270.152 13.5449 270.11 13.3065 270.029 13.0912C269.949 12.8783 269.831 12.6954 269.679 12.545C269.526 12.3945 269.342 12.2788 269.12 12.2001C268.899 12.1214 268.654 12.0798 268.384 12.0798C268.08 12.0798 267.815 12.1237 267.584 12.2094C267.356 12.2973 267.162 12.4316 267.005 12.6144C266.848 12.7973 266.723 13.0311 266.629 13.3157C266.534 13.6004 266.472 13.9384 266.44 14.3318H264.917C264.996 13.2625 265.219 12.4663 265.584 11.9455C266.197 11.0637 267.143 10.6216 268.426 10.6216C269.423 10.6216 270.216 10.9132 270.811 11.4942C271.409 12.0705 271.709 12.8366 271.709 13.7879C271.709 14.4082 271.584 14.9475 271.337 15.4058C271.215 15.6349 271.021 15.9173 270.751 16.2506C270.482 16.5839 270.142 16.9774 269.732 17.4334L267.226 20.1576H271.107V20.1622ZM279.398 20.1622L279.209 21.6621H272.2L276.521 16.8825C276.971 16.3895 277.329 15.9844 277.594 15.665C277.859 15.3456 278.046 15.1049 278.148 14.9406C278.344 14.6258 278.443 14.2508 278.443 13.8134C278.443 13.5449 278.401 13.3065 278.321 13.0912C278.24 12.8783 278.122 12.6954 277.97 12.545C277.818 12.3945 277.633 12.2788 277.412 12.2001C277.19 12.1214 276.946 12.0798 276.676 12.0798C276.371 12.0798 276.106 12.1237 275.875 12.2094C275.647 12.2973 275.453 12.4316 275.296 12.6144C275.139 12.7973 275.015 13.0311 274.92 13.3157C274.826 13.6004 274.763 13.9384 274.731 14.3318H273.208C273.287 13.2625 273.511 12.4663 273.875 11.9455C274.489 11.0637 275.435 10.6216 276.717 10.6216C277.714 10.6216 278.507 10.9132 279.103 11.4942C279.7 12.0705 280 12.8366 280 13.7879C280 14.4082 279.875 14.9475 279.629 15.4058C279.506 15.6349 279.313 15.9173 279.043 16.2506C278.773 16.5839 278.434 16.9774 278.023 17.4334L275.518 20.1576H279.398V20.1622ZM65.4415 12.7903C64.3341 12.7903 62.973 12.994 61.7273 13.4199C61.4643 13.5102 60.9867 13.7115 60.9867 13.7115L61.5934 15.9196L61.7042 15.8849C61.7042 15.8849 62.1194 15.7553 62.3594 15.6835C62.3732 15.6789 63.822 15.1813 65.0885 15.1813C65.949 15.1813 66.588 15.3572 66.9871 15.7021C67.3516 16.0168 67.5454 16.5631 67.5662 17.3269H65.3584C63.7389 17.3269 62.4632 17.6694 61.5704 18.343C60.7214 18.9841 60.29 19.8775 60.29 20.9978C60.29 22.0278 60.6591 22.8726 61.3881 23.5137C62.0456 24.0877 62.8853 24.384 63.9604 24.4187C64.0135 24.4187 64.0665 24.421 64.1219 24.421C64.8093 24.421 65.716 24.3724 66.6111 23.9998C66.881 23.8864 67.2247 23.7336 67.5685 23.516V24.4141H70.0554V17.188C70.0554 15.9914 69.6816 14.9776 68.9411 14.1791C68.1106 13.2579 66.9341 12.7903 65.4438 12.7903H65.4415ZM67.5685 19.6785V20.6529C67.2778 21.007 66.8095 21.3681 66.3019 21.625C65.7437 21.9097 65.2592 22.0509 64.7309 22.0856C63.3836 22.1759 62.6062 21.7269 62.6062 20.889C62.6062 20.4469 63.0445 20.0789 63.4805 19.9123C64.0042 19.7086 64.807 19.6785 65.5983 19.6785H67.5662H67.5685ZM53.6852 12.7718C52.6494 12.7718 51.722 12.9824 50.9238 13.3944V12.7718H48.2639V27.7679H50.9238V23.7892C51.7197 24.2035 52.6471 24.4141 53.6852 24.4141C55.367 24.4141 56.7396 23.8702 57.7639 22.7985C58.7836 21.7176 59.3003 20.3034 59.3003 18.593C59.3003 16.8825 58.7836 15.4706 57.7639 14.3874C56.7419 13.3157 55.3693 12.7718 53.6852 12.7718ZM51.6228 21.2385C51.339 20.977 51.0991 20.6251 50.9145 20.1877C50.7277 19.7549 50.6331 19.2133 50.6331 18.5814C50.6331 17.9495 50.7277 17.4056 50.9145 16.9728C51.4359 15.7646 52.3426 15.1767 53.6852 15.1767C54.4949 15.1767 55.1847 15.4313 55.7361 15.9312C56.4005 16.5492 56.7373 17.438 56.7373 18.5698C56.7373 19.7016 56.4028 20.6413 55.743 21.2431C55.45 21.5024 55.1178 21.6945 54.7579 21.8148C54.022 22.0671 53.3299 22.0671 52.5917 21.8148C52.2364 21.6945 51.9088 21.5 51.6228 21.2362V21.2385ZM79.7515 9.3995V13.3944C78.9556 12.9801 78.0282 12.7695 76.9901 12.7695C75.3083 12.7695 73.9357 13.3134 72.9114 14.3851C71.8917 15.466 71.375 16.8802 71.375 18.5906C71.375 20.3011 71.8917 21.713 72.9114 22.7962C73.9334 23.8678 75.306 24.4118 76.9901 24.4118C78.0259 24.4118 78.9533 24.2011 79.7515 23.7892V24.4118H82.4114V9.40181H79.7515V9.3995ZM80.0422 18.5999C80.0422 19.2341 79.9476 19.7757 79.7607 20.2085C79.2394 21.4167 78.3327 22.0046 76.9901 22.0046C76.1803 22.0046 75.4906 21.75 74.9392 21.2501C74.2748 20.6321 73.938 19.7433 73.938 18.6115C73.938 17.4796 74.2725 16.5399 74.9323 15.9381C75.2253 15.6789 75.5575 15.4868 75.9173 15.3665C76.2865 15.2415 76.6394 15.179 76.9993 15.179C77.3592 15.179 77.7145 15.2391 78.0836 15.3665C78.4412 15.4868 78.7664 15.6812 79.0525 15.9451C79.3363 16.2066 79.5762 16.5585 79.7607 16.9959C79.9476 17.4287 80.0422 17.9703 80.0422 18.6022V18.5999ZM47.0296 14.8225L45.3848 12.7255L39.5828 17.3037V9.40181H36.9229V24.4141H39.5828V20.7015L40.9946 19.5882L45.1402 24.4604L47.1634 22.7268L43.087 17.9356L47.0296 14.8248V14.8225ZM17.1799 12.7695C15.4151 12.7695 13.9432 13.3296 12.9259 14.3874C11.8831 15.4567 11.3525 16.8686 11.3525 18.5883C11.3525 20.308 11.8808 21.7199 12.9236 22.7893C13.9432 23.847 15.4151 24.4048 17.1799 24.4048C18.9447 24.4048 20.4189 23.847 21.4362 22.7893C22.479 21.7199 23.0073 20.308 23.0073 18.5883C23.0073 16.8686 22.479 15.4567 21.4362 14.3874C20.4166 13.3296 18.9447 12.7695 17.1799 12.7695ZM19.3069 21.2316C19.0047 21.4908 18.661 21.6829 18.2872 21.8056C17.9181 21.9282 17.5444 21.9907 17.1799 21.9931C16.8154 21.9931 16.4417 21.9282 16.0726 21.8056C15.7012 21.6829 15.3574 21.4908 15.0552 21.2339C14.3747 20.6344 14.0286 19.7363 14.0286 18.5629C14.0286 17.3894 14.3654 16.5538 15.0598 15.9289C15.6273 15.4266 16.3402 15.172 17.1799 15.172C18.0196 15.172 18.7325 15.4266 19.2977 15.9289C19.9921 16.5538 20.3289 17.4148 20.3289 18.5629C20.3289 19.7109 19.9829 20.6321 19.3046 21.2316H19.3069ZM29.739 12.7695C27.9742 12.7695 26.5023 13.3296 25.485 14.3874C24.4422 15.4567 23.9116 16.8686 23.9116 18.5883C23.9116 20.308 24.4399 21.7199 25.4826 22.7893C26.5023 23.847 27.9742 24.4048 29.739 24.4048C31.5038 24.4048 32.978 23.847 33.9953 22.7893C35.0381 21.7199 35.5664 20.308 35.5664 18.5883C35.5664 16.8686 35.0381 15.4567 33.9953 14.3874C32.9756 13.3296 31.5038 12.7695 29.739 12.7695ZM31.866 21.2316C31.5615 21.4908 31.2201 21.6829 30.8463 21.8056C30.4703 21.9306 30.1081 21.9907 29.739 21.9931C29.3745 21.9931 29.0008 21.9282 28.6316 21.8056C28.2602 21.6829 27.9165 21.4908 27.6143 21.2339C26.9337 20.6344 26.5877 19.7363 26.5877 18.5629C26.5877 17.3894 26.9245 16.5538 27.6189 15.9289C28.1864 15.4266 28.8993 15.172 29.739 15.172C30.5787 15.172 31.2916 15.4266 31.8568 15.9289C32.5512 16.5538 32.888 17.4148 32.888 18.5629C32.888 19.7109 32.5419 20.6321 31.8637 21.2316H31.866ZM3.0498 16.8177C3.28741 16.3825 3.62884 16.0076 4.06717 15.7044C4.55624 15.3664 5.18143 15.1859 5.87351 15.1859C6.19418 15.1859 6.51715 15.2253 6.83321 15.3016C7.67986 15.5053 8.41809 15.9682 9.09402 16.7158L9.17246 16.8015L10.9027 15.1049C10.9027 15.1049 10.4182 14.5471 9.86455 14.1351C8.75952 13.3181 7.41687 12.7695 5.79508 12.7695C3.82494 12.7695 2.0555 13.6398 1.07504 15.0146C0.336816 16.0516 0 17.3223 0 18.586C0 19.8498 0.334509 21.1205 1.07504 22.1574C2.0555 23.5322 3.82494 24.4025 5.79508 24.4025C7.41687 24.4025 8.75952 23.854 9.86455 23.0369C10.4205 22.6249 10.9027 22.0671 10.9027 22.0671L9.17246 20.3705L9.09402 20.4562C8.41809 21.2038 7.67986 21.6667 6.83321 21.8704C6.51715 21.9468 6.19418 21.9861 5.87351 21.9861C5.18143 21.9861 4.55855 21.8079 4.06717 21.4676C3.62884 21.1644 3.28511 20.7895 3.0498 20.3543C2.75681 19.8174 2.653 19.0651 2.653 18.5837C2.653 18.1023 2.75681 17.35 3.0498 16.8131V16.8177ZM83.9502 40.0328L82.4853 37.3641C82.4945 37.6719 82.5106 38.1117 82.5106 38.3501L82.5291 41.3868H81.4679V35.6629H82.5729L84.3447 38.7806L86.1164 35.6629H87.2214V41.3868H86.1602L86.1787 38.3501C86.1787 38.1117 86.1972 37.6719 86.2133 37.3641L84.7392 40.0328H83.9502ZM92.1537 41.3891H91.1802V41.0535C90.8641 41.3174 90.4512 41.4933 89.9344 41.5025C89.0209 41.5118 88.285 41.0188 88.285 40.1022C88.285 39.3176 88.864 38.7806 89.8214 38.7019C90.0059 38.6834 90.2436 38.6834 90.4881 38.6834H91.1802V38.5954C91.1802 38.1811 90.8549 37.8038 90.1628 37.8038C89.6899 37.8038 89.1454 37.9612 88.8294 38.1117L88.5756 37.2322C88.954 37.0748 89.646 36.8711 90.3035 36.8711C91.6277 36.8711 92.156 37.6719 92.156 38.57V41.3868L92.1537 41.3891ZM89.24 40.1045C89.24 40.4031 89.5376 40.5536 89.9413 40.5536C90.4235 40.5536 90.9057 40.3082 91.1779 39.9541V39.5837C90.9495 39.5745 90.6957 39.5745 90.4581 39.5745C90.2551 39.5745 90.0728 39.5745 89.9137 39.593C89.4846 39.637 89.2377 39.8407 89.2377 40.1045H89.24ZM97.3744 40.7295L96.5577 41.4261L94.9244 39.4194L94.3453 39.8592L94.3546 41.3914H93.2934V35.4036H94.3546L94.3453 38.6348L96.6615 36.7507L97.319 37.5701L95.7041 38.8199L97.372 40.7295H97.3744ZM99.0331 39.5328C99.0677 40.123 99.6121 40.5536 100.323 40.5536C100.849 40.5536 101.227 40.3684 101.568 39.9911L102.297 40.5906C101.963 41.0581 101.28 41.4979 100.26 41.4979C98.9961 41.4979 98.0042 40.6091 98.0042 39.1648C98.0042 37.9311 98.8024 36.8757 100.233 36.8757C101.663 36.8757 102.452 37.9057 102.452 39.1463C102.452 39.269 102.443 39.4009 102.427 39.5328H99.0308H99.0331ZM101.377 38.7135C101.352 38.2644 100.964 37.746 100.219 37.746C99.5429 37.746 99.123 38.2205 99.0769 38.7135H101.377ZM106.272 39.5328C106.307 40.123 106.851 40.5536 107.562 40.5536C108.088 40.5536 108.466 40.3684 108.808 39.9911L109.537 40.5906C109.202 41.0581 108.519 41.4979 107.5 41.4979C106.235 41.4979 105.243 40.6091 105.243 39.1648C105.243 37.9311 106.042 36.8757 107.472 36.8757C108.902 36.8757 109.691 37.9057 109.691 39.1463C109.691 39.269 109.682 39.4009 109.666 39.5328H106.27H106.272ZM108.616 38.7135C108.591 38.2644 108.203 37.746 107.458 37.746C106.782 37.746 106.362 38.2205 106.316 38.7135H108.616ZM114.513 37.209L112.766 41.3914H111.871L110.125 37.209L111.152 36.8919L112.319 40.0883L113.486 36.8919L114.513 37.209ZM116.197 39.5328C116.231 40.123 116.776 40.5536 117.486 40.5536C118.012 40.5536 118.391 40.3684 118.732 39.9911L119.461 40.5906C119.127 41.0581 118.444 41.4979 117.424 41.4979C116.16 41.4979 115.168 40.6091 115.168 39.1648C115.168 37.9311 115.966 36.8757 117.396 36.8757C118.827 36.8757 119.616 37.9057 119.616 39.1463C119.616 39.269 119.607 39.4009 119.59 39.5328H116.195H116.197ZM118.541 38.7135C118.515 38.2644 118.128 37.746 117.383 37.746C116.707 37.746 116.287 38.2205 116.241 38.7135H118.541ZM121.77 38.9519V41.3914H120.709V36.9891H121.77V37.4636C122.008 37.0678 122.463 36.8734 122.919 36.8734C123.27 36.8734 123.508 36.9428 123.736 37.0771L123.438 38.0191C123.288 37.9057 123.078 37.8525 122.797 37.8525C122.2 37.871 121.752 38.3547 121.77 38.9519ZM128.553 37.253L126.184 43.0024L125.166 42.6228L125.886 40.9586L124.165 37.2507L125.201 36.8641L126.437 39.718L127.517 36.8641L128.553 37.2507V37.253ZM133.354 41.3914H132.292V41.0743C132.089 41.3035 131.67 41.5048 131.109 41.5048C129.81 41.5048 128.977 40.5373 128.977 39.225C128.977 37.9126 129.759 36.8827 131.162 36.8827C131.706 36.8827 132.101 37.0493 132.295 37.1905V35.4036H133.356V41.3914H133.354ZM131.229 37.8339C130.484 37.8339 130.018 38.3802 130.018 39.2157C130.018 39.9564 130.447 40.5373 131.229 40.5373C132.011 40.5373 132.415 39.9911 132.415 39.2157C132.415 38.4403 132.002 37.8339 131.229 37.8339ZM138.284 41.3914H137.31V41.0558C136.994 41.3197 136.581 41.4956 136.064 41.5048C135.151 41.5141 134.415 41.0211 134.415 40.1045C134.415 39.3199 134.994 38.7829 135.951 38.7042C136.136 38.6857 136.373 38.6857 136.618 38.6857H137.31V38.5977C137.31 38.1834 136.985 37.8062 136.293 37.8062C135.82 37.8062 135.275 37.9636 134.959 38.114L134.706 37.2345C135.084 37.0771 135.776 36.8734 136.433 36.8734C137.758 36.8734 138.286 37.6742 138.286 38.5723V41.3891L138.284 41.3914ZM135.37 40.1068C135.37 40.4054 135.668 40.5559 136.071 40.5559C136.553 40.5559 137.036 40.3105 137.308 39.9564V39.5861C137.079 39.5768 136.826 39.5768 136.588 39.5768C136.385 39.5768 136.203 39.5768 136.044 39.5953C135.614 39.6393 135.368 39.843 135.368 40.1068H135.37ZM143.267 37.253L140.897 43.0024L139.88 42.6228L140.6 40.9586L138.879 37.2507L139.915 36.8641L141.151 39.718L142.231 36.8641L143.267 37.2507V37.253ZM149.611 40.5559C149.207 41.0674 148.55 41.4979 147.636 41.4979C146.284 41.4979 145.301 40.6184 145.301 39.1833C145.301 37.9149 146.134 36.8757 147.661 36.8757C148.663 36.8757 149.295 37.378 149.608 37.8177L148.907 38.4612C148.653 38.1186 148.231 37.827 147.671 37.827C146.863 37.827 146.346 38.4079 146.346 39.1833C146.346 40.0629 146.916 40.5304 147.645 40.5304C148.171 40.5304 148.637 40.2388 148.919 39.8708L149.611 40.5582V40.5559ZM152.628 41.4979C151.276 41.4979 150.328 40.6091 150.328 39.1648C150.328 37.8177 151.214 36.8757 152.628 36.8757C154.19 36.8757 154.928 37.9242 154.928 39.1648C154.928 40.5304 154.052 41.4979 152.628 41.4979ZM152.628 37.827C151.812 37.827 151.373 38.3825 151.373 39.1648C151.373 40.0189 151.874 40.5304 152.628 40.5304C153.383 40.5304 153.883 39.9842 153.883 39.1648C153.883 38.4172 153.461 37.827 152.628 37.827ZM157.927 41.4979C156.576 41.4979 155.627 40.6091 155.627 39.1648C155.627 37.8177 156.513 36.8757 157.927 36.8757C159.489 36.8757 160.227 37.9242 160.227 39.1648C160.227 40.5304 159.351 41.4979 157.927 41.4979ZM157.927 37.827C157.111 37.827 156.672 38.3825 156.672 39.1648C156.672 40.0189 157.173 40.5304 157.927 40.5304C158.682 40.5304 159.182 39.9842 159.182 39.1648C159.182 38.4172 158.76 37.827 157.927 37.827ZM165.097 40.7318L164.281 41.4285L162.647 39.4217L162.068 39.8615L162.078 41.3937H161.016V35.406H162.078L162.068 38.6371L164.385 36.753L165.042 37.5724L163.427 38.8223L165.095 40.7318H165.097ZM166.528 36.5239C166.149 36.5239 165.843 36.2161 165.843 35.8365C165.843 35.4569 166.149 35.1676 166.528 35.1676C166.906 35.1676 167.194 35.4661 167.194 35.8365C167.194 36.2068 166.888 36.5239 166.528 36.5239ZM167.054 41.3937H165.993V36.9914H167.054V41.3937ZM169.511 41.3937H168.449V36.9914H169.511V37.5284C169.686 37.1488 170.133 36.878 170.703 36.878C171.755 36.878 172.284 37.6349 172.3 38.4797V41.3937H171.239C171.239 41.3937 171.248 40.461 171.248 39.6509C171.248 39.2458 171.248 38.8755 171.239 38.6741C171.22 38.1904 170.904 37.8015 170.353 37.8015C169.852 37.8015 169.527 38.1441 169.511 38.4982V41.3961V41.3937ZM177.663 41.1739C177.663 42.2386 176.803 43.0047 175.382 43.0047C174.618 43.0047 173.917 42.7848 173.522 42.3265L174.155 41.6136C174.401 41.9122 174.812 42.0812 175.384 42.0812C176.235 42.0812 176.692 41.7456 176.683 41.1391V40.9285C176.508 41.1831 176.051 41.3961 175.428 41.3961C174.182 41.3961 173.287 40.5165 173.287 39.1255C173.287 37.9196 173.998 36.8803 175.437 36.8803C176.166 36.8803 176.542 37.1442 176.711 37.3201L176.701 36.9938H177.666V41.1762L177.663 41.1739ZM175.539 37.827C174.757 37.827 174.328 38.364 174.328 39.1301C174.328 39.9587 174.81 40.4425 175.513 40.4425C176.171 40.4425 176.706 39.9934 176.706 39.1208C176.706 38.3987 176.284 37.827 175.539 37.827ZM182.997 37.8964H181.98V41.3914H180.919V37.8964H180.12V36.9891H180.919V36.5841C180.919 35.6953 181.523 35.193 182.287 35.2277C182.593 35.237 182.847 35.3064 183.147 35.4916L182.84 36.2577C182.674 36.1443 182.55 36.1258 182.427 36.1258C182.155 36.135 181.98 36.3202 181.98 36.716V36.9891H182.997V37.8964ZM187.842 41.3914H186.78V40.9517C186.587 41.2595 186.183 41.5072 185.604 41.5072C184.69 41.5072 184.008 40.9702 183.989 39.9055V36.9914H185.05C185.05 36.9914 185.041 37.9867 185.041 38.8315C185.041 39.2551 185.041 39.6324 185.05 39.836C185.069 40.2943 185.366 40.5489 185.892 40.5489C186.418 40.5489 186.778 40.2411 186.778 39.8453V36.9914H187.839V41.3937L187.842 41.3914ZM190.308 41.3914H189.247V36.9891H190.308V37.5261C190.483 37.1465 190.931 36.8757 191.501 36.8757C192.552 36.8757 193.081 37.6326 193.097 38.4774V41.3914H192.036C192.036 41.3914 192.045 40.4587 192.045 39.6486C192.045 39.2435 192.045 38.8732 192.036 38.6718C192.017 38.1881 191.701 37.7992 191.15 37.7992C190.649 37.7992 190.324 38.1418 190.308 38.4959V41.3937V41.3914ZM195.125 41.4979C194.73 41.4979 194.414 41.1808 194.414 40.785C194.414 40.3892 194.73 40.0721 195.125 40.0721C195.519 40.0721 195.835 40.3892 195.835 40.785C195.835 41.1808 195.519 41.4979 195.125 41.4979ZM195.678 35.6698L195.669 39.5699H194.608V35.6698H195.678Z" fill="black"/>
</g>
<defs>
<clipPath id="clip0_242_316">
<rect width="280" height="43" fill="white"/>
</clipPath>
</defs>
</svg>
