<svg width="500" height="500" viewBox="0 0 500 500" fill="none" xmlns="http://www.w3.org/2000/svg">
<path d="M485.733 81.1157L418.884 14.2667C399.866 -4.75151 369.032 -4.75151 350.014 14.2667L284.434 79.847C265.415 98.8652 234.581 98.8652 215.563 79.847L149.983 14.2636C130.965 -4.75455 100.131 -4.75455 81.1126 14.2636L14.2636 81.1157C-4.75455 100.134 -4.75455 130.968 14.2636 149.986L79.8439 215.566C98.8621 234.585 98.8621 265.419 79.8439 284.437L14.2636 350.017C-4.75455 369.035 -4.75455 399.869 14.2636 418.887L81.1126 485.736C100.131 504.755 130.965 504.755 149.983 485.736L215.563 420.156C234.581 401.138 265.415 401.138 284.434 420.156L350.014 485.736C369.032 504.755 399.866 504.755 418.884 485.736L485.733 418.887C504.752 399.869 504.752 369.035 485.733 350.017L420.153 284.437C401.135 265.419 401.135 234.585 420.153 215.566L485.733 149.986C504.752 130.968 504.752 100.134 485.733 81.1157Z" fill="white"/>
<g clip-path="url(#clip0_89_310)">
<path d="M226.358 355.402L231.075 347.49L232.889 348.492L228.649 356.686L226.358 355.402Z" fill="black"/>
<path d="M248.759 367.819L248.355 371H233.488L242.656 360.864C243.61 359.817 244.368 358.959 244.935 358.28C245.502 357.601 245.893 357.09 246.109 356.743C246.525 356.076 246.733 355.279 246.733 354.355C246.733 353.787 246.647 353.28 246.472 352.826C246.297 352.372 246.052 351.988 245.73 351.669C245.408 351.35 245.012 351.109 244.548 350.937C244.083 350.765 243.561 350.683 242.986 350.683C242.342 350.683 241.776 350.777 241.291 350.961C240.805 351.145 240.394 351.432 240.064 351.82C239.729 352.208 239.464 352.703 239.269 353.304C239.069 353.905 238.934 354.625 238.865 355.459H235.636C235.804 353.19 236.276 351.505 237.051 350.397C238.351 348.525 240.361 347.592 243.08 347.592C245.192 347.592 246.879 348.21 248.139 349.445C249.411 350.667 250.043 352.29 250.043 354.31C250.043 355.623 249.782 356.767 249.256 357.745C248.999 358.231 248.583 358.828 248.013 359.535C247.442 360.243 246.72 361.077 245.848 362.042L240.536 367.819H248.767H248.759Z" fill="black"/>
<path d="M266.349 367.819L265.945 371H251.078L260.246 360.864C261.2 359.817 261.958 358.959 262.525 358.28C263.092 357.601 263.483 357.09 263.699 356.743C264.115 356.076 264.323 355.279 264.323 354.355C264.323 353.787 264.237 353.28 264.062 352.826C263.887 352.372 263.642 351.988 263.32 351.669C262.998 351.35 262.602 351.109 262.138 350.937C261.673 350.765 261.151 350.683 260.576 350.683C259.932 350.683 259.366 350.777 258.881 350.961C258.396 351.145 257.984 351.432 257.654 351.82C257.319 352.208 257.054 352.703 256.859 353.304C256.659 353.905 256.524 354.625 256.455 355.459H253.227C253.394 353.19 253.867 351.505 254.641 350.397C255.941 348.525 257.951 347.592 260.67 347.592C262.782 347.592 264.47 348.21 265.729 349.445C267.001 350.667 267.633 352.29 267.633 354.31C267.633 355.623 267.372 356.767 266.846 357.745C266.589 358.231 266.173 358.828 265.603 359.535C265.032 360.243 264.311 361.077 263.438 362.042L258.126 367.819H266.357H266.349Z" fill="black"/>
<path d="M279.96 246.14C290.38 246.14 297.893 241.209 302.499 235.366L294.587 227.516C291.383 231.744 286.071 235.068 280.062 235.068C271.746 235.068 265.236 229.732 265.236 219.666C265.236 210.806 271.147 204.161 280.364 204.161C286.776 204.161 291.582 207.481 294.489 211.411L302.503 204.063C298.896 199.03 291.684 193.29 280.262 193.29C262.831 193.29 253.316 205.171 253.316 219.666C253.316 236.074 264.535 246.14 279.964 246.14H279.96Z" fill="black"/>
<path d="M181.611 296.259C170.555 296.259 161.444 287.951 161.444 273.08C161.444 260.258 169.3 250.719 182.002 250.719C190.73 250.719 197.419 255.953 201.104 261.284L209.734 253.078C205.332 246.737 196.567 239.455 183.294 238.972V190.575H205.964V179.503H148V190.575H170.771V240.547C156.956 244.848 148.934 257.339 148.934 273.08C148.934 295.85 163.283 308.259 181.513 308.259C194.892 308.259 204.203 302.004 209.828 294.104L201.296 285.285C197.322 291.03 190.824 296.259 181.611 296.259Z" fill="black"/>
<path d="M224.866 246.14C236.488 246.14 244.299 241.107 248.106 235.771L239.79 228.927C235.885 233.256 231.576 235.37 225.563 235.37C217.447 235.37 211.239 230.439 210.839 223.693H249.607C249.806 222.184 249.908 220.672 249.908 219.265C249.908 205.069 241.392 193.29 224.565 193.29C207.737 193.29 199.119 205.372 199.119 219.465C199.119 235.975 210.44 246.144 224.866 246.144V246.14ZM224.365 203.254C232.881 203.254 237.287 209.195 237.589 214.326H211.345C211.846 208.688 216.652 203.254 224.369 203.254H224.365Z" fill="black"/>
<path d="M341.393 255.642V252.461C341.393 247.845 343.435 245.69 346.599 245.588C348.025 245.588 349.75 245.776 351.69 247.109V236.499V211.611C351.49 201.945 345.478 193.29 333.46 193.29C326.95 193.29 321.838 196.409 319.836 200.739V176.477H307.713V244.934H319.836V211.811C320.036 207.784 323.742 203.859 329.453 203.859C335.763 203.859 339.371 208.287 339.571 213.827C339.669 216.141 339.669 220.369 339.669 225.001C339.669 228.595 339.652 232.394 339.636 235.706C333.432 237.407 329.045 242.755 329.045 250.92V255.638H319.759V266.203H329.045V306.922H341.393V266.203H351.825V255.638H341.393V255.642Z" fill="black"/>
<path d="M296.588 254.309C289.956 254.309 284.75 257.49 282.708 261.898V255.642H270.36V306.926H282.708V273.182C282.912 269.081 286.686 265.079 292.508 265.079C298.936 265.079 302.613 269.593 302.817 275.235C302.919 277.594 302.919 281.904 302.919 286.618C302.919 296.054 302.817 306.926 302.817 306.926H315.165V272.978C314.961 263.132 308.838 254.309 296.588 254.309Z" fill="black"/>
<path d="M238.514 254.309C222.082 254.309 211.773 265.283 211.773 280.975C211.773 297.796 222.796 308.157 238.514 308.157C255.049 308.157 265.256 296.876 265.256 280.975C265.256 266.514 256.683 254.309 238.514 254.309ZM238.514 296.876C229.738 296.876 223.921 290.927 223.921 280.98C223.921 271.85 229.024 265.389 238.514 265.389C248.005 265.389 253.108 272.262 253.108 280.98C253.108 290.518 247.291 296.876 238.514 296.876Z" fill="black"/>
<path d="M309.857 135.398C307.122 135.398 303.755 135.905 300.669 136.956C300.021 137.177 298.834 137.676 298.834 137.676L300.339 143.146L300.612 143.06C300.612 143.06 301.635 142.737 302.23 142.562C302.267 142.549 305.846 141.315 308.981 141.315C311.109 141.315 312.69 141.748 313.677 142.607C314.578 143.383 315.059 144.737 315.108 146.63H309.645C305.638 146.63 302.483 147.476 300.273 149.148C298.174 150.735 297.106 152.951 297.106 155.727C297.106 158.278 298.019 160.372 299.821 161.958C301.447 163.381 303.526 164.113 306.18 164.203C306.311 164.207 306.445 164.211 306.584 164.211C308.288 164.211 310.526 164.093 312.739 163.168C313.408 162.89 314.256 162.51 315.108 161.966V164.191H321.255V146.295C321.255 143.33 320.33 140.82 318.503 138.841C316.449 136.555 313.538 135.398 309.849 135.398H309.857ZM315.116 152.464V154.877C314.398 155.752 313.237 156.647 311.985 157.285C310.603 157.988 309.405 158.344 308.1 158.43C304.77 158.651 302.846 157.542 302.846 155.465C302.846 154.37 303.934 153.462 305.01 153.045C306.307 152.538 308.292 152.468 310.244 152.468H315.112L315.116 152.464Z" fill="black"/>
<path d="M280.775 135.353C278.211 135.353 275.916 135.872 273.947 136.899V135.353H267.368V172.503H273.947V162.645C275.916 163.671 278.211 164.191 280.775 164.191C284.938 164.191 288.329 162.845 290.865 160.188C293.384 157.51 294.664 154.006 294.664 149.77C294.664 145.534 293.384 142.034 290.861 139.352C288.333 136.698 284.938 135.349 280.771 135.349L280.775 135.353ZM275.676 156.328C274.971 155.682 274.384 154.807 273.927 153.728C273.466 152.656 273.23 151.315 273.23 149.749C273.23 148.183 273.462 146.838 273.927 145.763C275.215 142.77 277.457 141.315 280.78 141.315C282.785 141.315 284.489 141.944 285.851 143.187C287.494 144.72 288.329 146.92 288.329 149.721C288.329 152.522 287.502 154.852 285.867 156.34C285.141 156.982 284.322 157.457 283.429 157.759C281.607 158.385 279.895 158.385 278.073 157.759C277.192 157.461 276.385 156.982 275.68 156.328H275.676Z" fill="black"/>
<path d="M345.245 127V136.899C343.276 135.872 340.981 135.353 338.417 135.353C334.255 135.353 330.863 136.698 328.328 139.356C325.809 142.034 324.529 145.538 324.529 149.774C324.529 154.01 325.809 157.51 328.332 160.192C330.859 162.845 334.255 164.195 338.417 164.195C340.981 164.195 343.276 163.675 345.245 162.649V164.195H351.825V127H345.245ZM345.963 149.794C345.963 151.364 345.73 152.706 345.266 153.781C343.977 156.774 341.735 158.229 338.413 158.229C336.407 158.229 334.703 157.6 333.342 156.357C331.699 154.823 330.863 152.624 330.863 149.823C330.863 147.022 331.691 144.692 333.326 143.203C334.051 142.566 334.871 142.087 335.763 141.785C336.676 141.474 337.549 141.323 338.442 141.323C339.334 141.323 340.211 141.474 341.12 141.785C342 142.083 342.807 142.562 343.513 143.216C344.218 143.862 344.805 144.737 345.262 145.816C345.722 146.887 345.959 148.228 345.959 149.794H345.963Z" fill="black"/>
<path d="M264.315 140.435L260.246 135.239L245.897 146.581V127H239.322V164.191H245.897V154.991L249.386 152.235L259.639 164.305L264.645 160.012L254.56 148.143L264.315 140.435Z" fill="black"/>
<path d="M190.485 135.353C186.119 135.353 182.479 136.739 179.96 139.36C177.379 142.01 176.071 145.509 176.071 149.766C176.071 154.022 177.379 157.526 179.956 160.171C182.475 162.788 186.115 164.174 190.485 164.174C194.855 164.174 198.496 162.792 201.015 160.176C203.591 157.53 204.9 154.026 204.9 149.77C204.9 145.514 203.591 142.01 201.011 139.364C198.491 136.743 194.851 135.353 190.485 135.353ZM195.744 156.32C194.994 156.958 194.146 157.436 193.225 157.739C192.311 158.041 191.39 158.201 190.485 158.201C189.584 158.201 188.663 158.041 187.746 157.739C186.825 157.436 185.977 156.958 185.231 156.324C183.547 154.84 182.695 152.611 182.695 149.708C182.695 146.806 183.531 144.733 185.243 143.187C186.649 141.944 188.41 141.31 190.485 141.31C192.56 141.31 194.321 141.94 195.728 143.183C197.444 144.733 198.279 146.867 198.279 149.708C198.279 152.55 197.427 154.836 195.748 156.32H195.744Z" fill="black"/>
<path d="M221.544 135.353C217.178 135.353 213.538 136.739 211.019 139.36C208.438 142.01 207.13 145.509 207.13 149.766C207.13 154.022 208.438 157.526 211.014 160.171C213.534 162.788 217.174 164.174 221.544 164.174C225.914 164.174 229.554 162.792 232.074 160.176C234.65 157.53 235.959 154.026 235.959 149.77C235.959 145.514 234.65 142.01 232.07 139.364C229.55 136.743 225.91 135.353 221.544 135.353ZM226.803 156.32C226.053 156.962 225.205 157.436 224.283 157.739C223.354 158.049 222.461 158.201 221.544 158.201C220.643 158.201 219.722 158.041 218.805 157.739C217.883 157.436 217.035 156.958 216.289 156.324C214.606 154.84 213.754 152.611 213.754 149.708C213.754 146.806 214.59 144.733 216.302 143.187C217.708 141.944 219.469 141.31 221.544 141.31C223.619 141.31 225.38 141.94 226.786 143.183C228.503 144.733 229.338 146.867 229.338 149.708C229.338 152.55 228.486 154.836 226.807 156.32H226.803Z" fill="black"/>
<path d="M154.563 149.762C154.563 150.956 154.82 152.816 155.546 154.149C156.133 155.224 156.976 156.152 158.065 156.905C159.276 157.743 160.821 158.188 162.533 158.188C163.328 158.188 164.127 158.09 164.905 157.902C166.996 157.395 168.827 156.246 170.498 154.398L170.69 154.186L174.97 158.385C174.97 158.385 173.772 159.771 172.398 160.789C169.667 162.817 166.344 164.174 162.333 164.174C157.462 164.174 153.083 162.015 150.658 158.61C148.832 156.042 148 152.89 148 149.762C148 146.634 148.832 143.481 150.658 140.914C153.079 137.508 157.462 135.349 162.333 135.349C166.344 135.349 169.667 136.707 172.398 138.735C173.772 139.753 174.97 141.139 174.97 141.139L170.69 145.338L170.498 145.125C168.827 143.273 166.996 142.128 164.905 141.621C164.123 141.433 163.324 141.335 162.533 141.335C160.821 141.335 159.276 141.781 158.065 142.619C156.981 143.371 156.133 144.299 155.546 145.375C154.82 146.707 154.563 148.572 154.563 149.762Z" fill="black"/>
<path d="M154.294 328.028L151.706 323.314C151.722 323.858 151.75 324.634 151.75 325.056L151.783 330.42H149.908V320.309H151.86L154.991 325.816L158.122 320.309H160.075V330.42H158.199L158.232 325.056C158.232 324.634 158.265 323.858 158.293 323.314L155.688 328.028H154.294Z" fill="black"/>
<path d="M168.794 330.424H167.074V329.831C166.515 330.297 165.786 330.608 164.873 330.624C163.258 330.641 161.958 329.77 161.958 328.151C161.958 326.765 162.981 325.816 164.673 325.677C164.999 325.644 165.419 325.644 165.851 325.644H167.074V325.489C167.074 324.757 166.499 324.091 165.276 324.091C164.441 324.091 163.478 324.369 162.92 324.634L162.472 323.081C163.14 322.803 164.363 322.443 165.525 322.443C167.865 322.443 168.798 323.858 168.798 325.444V330.42L168.794 330.424ZM163.646 328.155C163.646 328.682 164.171 328.948 164.885 328.948C165.737 328.948 166.589 328.515 167.07 327.889V327.235C166.666 327.218 166.218 327.218 165.798 327.218C165.439 327.218 165.117 327.218 164.836 327.251C164.078 327.329 163.642 327.689 163.642 328.155H163.646Z" fill="black"/>
<path d="M178.019 329.259L176.576 330.489L173.69 326.944L172.667 327.721L172.683 330.428H170.808V319.851H172.683L172.667 325.558L176.76 322.23L177.921 323.678L175.068 325.886L178.015 329.259H178.019Z" fill="black"/>
<path d="M180.95 327.145C181.011 328.187 181.974 328.948 183.229 328.948C184.159 328.948 184.827 328.621 185.43 327.954L186.719 329.013C186.127 329.839 184.921 330.616 183.119 330.616C180.885 330.616 179.132 329.046 179.132 326.495C179.132 324.315 180.543 322.451 183.07 322.451C185.598 322.451 186.992 324.271 186.992 326.462C186.992 326.679 186.975 326.912 186.947 327.145H180.946H180.95ZM185.092 325.697C185.047 324.904 184.362 323.988 183.046 323.988C181.851 323.988 181.109 324.827 181.028 325.697H185.092Z" fill="black"/>
<path d="M193.742 327.145C193.803 328.187 194.766 328.948 196.021 328.948C196.951 328.948 197.619 328.621 198.222 327.954L199.511 329.013C198.919 329.839 197.713 330.616 195.911 330.616C193.677 330.616 191.924 329.046 191.924 326.495C191.924 324.315 193.335 322.451 195.862 322.451C198.39 322.451 199.784 324.271 199.784 326.462C199.784 326.679 199.767 326.912 199.739 327.145H193.738H193.742ZM197.884 325.697C197.839 324.904 197.154 323.988 195.838 323.988C194.643 323.988 193.901 324.827 193.82 325.697H197.884Z" fill="black"/>
<path d="M208.3 323.036L205.214 330.424H203.632L200.546 323.036L202.36 322.476L204.423 328.122L206.485 322.476L208.3 323.036Z" fill="black"/>
<path d="M211.275 327.145C211.336 328.187 212.299 328.948 213.554 328.948C214.484 328.948 215.152 328.621 215.755 327.954L217.044 329.013C216.452 329.839 215.246 330.616 213.444 330.616C211.21 330.616 209.457 329.046 209.457 326.495C209.457 324.315 210.868 322.451 213.395 322.451C215.923 322.451 217.317 324.271 217.317 326.462C217.317 326.679 217.3 326.912 217.272 327.145H211.271H211.275ZM215.417 325.697C215.372 324.904 214.687 323.988 213.371 323.988C212.176 323.988 211.434 324.827 211.353 325.697H215.417Z" fill="black"/>
<path d="M221.124 326.114V330.424H219.249V322.647H221.124V323.485C221.544 322.786 222.347 322.443 223.154 322.443C223.774 322.443 224.194 322.566 224.597 322.803L224.071 324.467C223.806 324.266 223.436 324.172 222.938 324.172C221.882 324.205 221.092 325.06 221.124 326.114Z" fill="black"/>
<path d="M233.109 323.113L228.922 333.27L227.125 332.599L228.397 329.659L225.356 323.109L227.186 322.427L229.371 327.468L231.279 322.427L233.109 323.109V323.113Z" fill="black"/>
<path d="M241.588 330.424H239.713V329.864C239.354 330.269 238.612 330.624 237.622 330.624C235.327 330.624 233.855 328.915 233.855 326.597C233.855 324.279 235.237 322.459 237.715 322.459C238.678 322.459 239.375 322.754 239.717 323.003V319.847H241.592V330.424H241.588ZM237.834 324.14C236.517 324.14 235.694 325.105 235.694 326.581C235.694 327.889 236.452 328.915 237.834 328.915C239.216 328.915 239.929 327.95 239.929 326.581C239.929 325.211 239.199 324.14 237.834 324.14Z" fill="black"/>
<path d="M250.304 330.424H248.583V329.831C248.025 330.297 247.295 330.608 246.382 330.624C244.768 330.641 243.467 329.77 243.467 328.151C243.467 326.765 244.491 325.816 246.182 325.677C246.508 325.644 246.928 325.644 247.36 325.644H248.583V325.489C248.583 324.757 248.009 324.091 246.786 324.091C245.95 324.091 244.988 324.369 244.429 324.634L243.981 323.081C244.65 322.803 245.873 322.443 247.034 322.443C249.374 322.443 250.308 323.858 250.308 325.444V330.42L250.304 330.424ZM245.155 328.155C245.155 328.682 245.681 328.948 246.394 328.948C247.246 328.948 248.098 328.515 248.579 327.889V327.235C248.176 327.218 247.727 327.218 247.307 327.218C246.949 327.218 246.627 327.218 246.345 327.251C245.587 327.329 245.151 327.689 245.151 328.155H245.155Z" fill="black"/>
<path d="M259.109 323.113L254.922 333.27L253.125 332.599L254.397 329.659L251.355 323.109L253.186 322.427L255.371 327.468L257.279 322.427L259.109 323.109V323.113Z" fill="black"/>
<path d="M270.319 328.948C269.606 329.852 268.444 330.612 266.83 330.612C264.441 330.612 262.704 329.058 262.704 326.523C262.704 324.283 264.176 322.447 266.875 322.447C268.644 322.447 269.761 323.334 270.315 324.111L269.076 325.248C268.628 324.643 267.882 324.127 266.891 324.127C265.464 324.127 264.551 325.154 264.551 326.523C264.551 328.077 265.558 328.903 266.846 328.903C267.776 328.903 268.599 328.388 269.096 327.738L270.319 328.952V328.948Z" fill="black"/>
<path d="M275.655 330.612C273.267 330.612 271.591 329.042 271.591 326.491C271.591 324.111 273.157 322.447 275.655 322.447C278.415 322.447 279.72 324.299 279.72 326.491C279.72 328.903 278.171 330.612 275.655 330.612ZM275.655 324.127C274.212 324.127 273.438 325.109 273.438 326.491C273.438 327.999 274.322 328.903 275.655 328.903C276.988 328.903 277.873 327.938 277.873 326.491C277.873 325.17 277.127 324.127 275.655 324.127Z" fill="black"/>
<path d="M285.019 330.612C282.63 330.612 280.955 329.042 280.955 326.491C280.955 324.111 282.52 322.447 285.019 322.447C287.779 322.447 289.083 324.299 289.083 326.491C289.083 328.903 287.534 330.612 285.019 330.612ZM285.019 324.127C283.576 324.127 282.802 325.109 282.802 326.491C282.802 327.999 283.686 328.903 285.019 328.903C286.352 328.903 287.237 327.938 287.237 326.491C287.237 325.17 286.491 324.127 285.019 324.127Z" fill="black"/>
<path d="M297.689 329.259L296.246 330.489L293.36 326.944L292.336 327.721L292.353 330.428H290.478V319.851H292.353L292.336 325.558L296.429 322.23L297.591 323.678L294.737 325.886L297.685 329.259H297.689Z" fill="black"/>
<path d="M300.216 321.825C299.548 321.825 299.006 321.282 299.006 320.611C299.006 319.941 299.548 319.43 300.216 319.43C300.885 319.43 301.394 319.957 301.394 320.611C301.394 321.265 300.852 321.825 300.216 321.825ZM301.146 330.428H299.271V322.651H301.146V330.428Z" fill="black"/>
<path d="M305.487 330.424H303.612V322.647H305.487V323.596C305.797 322.925 306.588 322.447 307.595 322.447C309.454 322.447 310.387 323.784 310.416 325.276V330.424H308.541C308.541 330.424 308.557 328.776 308.557 327.345C308.557 326.63 308.557 325.975 308.541 325.62C308.508 324.765 307.949 324.078 306.975 324.078C306.091 324.078 305.516 324.683 305.487 325.309V330.428V330.424Z" fill="black"/>
<path d="M319.889 330.036C319.889 331.916 318.369 333.27 315.858 333.27C314.508 333.27 313.269 332.881 312.572 332.072L313.689 330.812C314.125 331.34 314.851 331.638 315.862 331.638C317.366 331.638 318.173 331.045 318.157 329.974V329.602C317.847 330.052 317.04 330.428 315.939 330.428C313.738 330.428 312.156 328.874 312.156 326.417C312.156 324.287 313.412 322.451 315.956 322.451C317.244 322.451 317.908 322.917 318.206 323.228L318.19 322.651H319.894V330.04L319.889 330.036ZM316.135 324.123C314.753 324.123 313.995 325.072 313.995 326.425C313.995 327.889 314.847 328.744 316.09 328.744C317.252 328.744 318.198 327.95 318.198 326.409C318.198 325.133 317.452 324.123 316.135 324.123Z" fill="black"/>
<path d="M329.318 324.25H327.521V330.424H325.645V324.25H324.235V322.647H325.645V321.932C325.645 320.362 326.714 319.474 328.063 319.536C328.605 319.552 329.053 319.675 329.583 320.002L329.041 321.355C328.748 321.155 328.528 321.122 328.312 321.122C327.83 321.139 327.521 321.466 327.521 322.165V322.647H329.318V324.25Z" fill="black"/>
<path d="M337.875 330.424H336V329.647C335.657 330.191 334.944 330.628 333.921 330.628C332.306 330.628 331.1 329.68 331.067 327.799V322.651H332.942C332.942 322.651 332.926 324.41 332.926 325.902C332.926 326.65 332.926 327.317 332.942 327.676C332.975 328.486 333.501 328.936 334.43 328.936C335.36 328.936 335.996 328.392 335.996 327.693V322.651H337.871V330.428L337.875 330.424Z" fill="black"/>
<path d="M342.233 330.424H340.358V322.647H342.233V323.596C342.543 322.925 343.333 322.447 344.34 322.447C346.199 322.447 347.133 323.784 347.161 325.276V330.424H345.286C345.286 330.424 345.302 328.776 345.302 327.345C345.302 326.63 345.302 325.975 345.286 325.62C345.253 324.765 344.695 324.078 343.721 324.078C342.836 324.078 342.261 324.683 342.233 325.309V330.428V330.424Z" fill="black"/>
<path d="M350.744 330.612C350.047 330.612 349.489 330.052 349.489 329.353C349.489 328.654 350.047 328.093 350.744 328.093C351.442 328.093 352 328.654 352 329.353C352 330.052 351.442 330.612 350.744 330.612ZM351.723 320.317L351.706 327.206H349.831V320.317H351.723Z" fill="black"/>
</g>
<defs>
<clipPath id="clip0_89_310">
<rect width="204" height="244" fill="white" transform="translate(148 127)"/>
</clipPath>
</defs>
</svg>
